0
SECTION
2
ENTITIES
0
LINE
8
CONTORNO
10
0.000
20
0.000
11
76.000
21
0.000
0
LINE
8
CONTORNO
10
76.000
20
0.000
11
76.000
21
64.000
0
LINE
8
CONTORNO
10
76.000
20
64.000
11
0.000
21
64.000
0
LINE
8
CONTORNO
10
0.000
20
64.000
11
0.000
21
0.000
0
CIRCLE
8
FUROS
10
3.500
20
60.500
40
1.600
0
LINE
8
CENTRO
10
1.000
20
60.500
11
6.000
21
60.500
0
LINE
8
CENTRO
10
3.500
20
58.000
11
3.500
21
63.000
0
TEXT
8
COTAS
10
5.700
20
62.700
40
1.20
1
H1 (3.50, 60.50) D3.2
0
CIRCLE
8
FUROS
10
72.500
20
46.000
40
1.600
0
LINE
8
CENTRO
10
70.000
20
46.000
11
75.000
21
46.000
0
LINE
8
CENTRO
10
72.500
20
43.500
11
72.500
21
48.500
0
TEXT
8
COTAS
10
74.700
20
48.200
40
1.20
1
H2 (72.50, 46.00) D3.2
0
CIRCLE
8
FUROS
10
3.500
20
3.500
40
1.600
0
LINE
8
CENTRO
10
1.000
20
3.500
11
6.000
21
3.500
0
LINE
8
CENTRO
10
3.500
20
1.000
11
3.500
21
6.000
0
TEXT
8
COTAS
10
5.700
20
5.700
40
1.20
1
H3 (3.50, 3.50) D3.2
0
CIRCLE
8
FUROS
10
72.500
20
3.500
40
1.600
0
LINE
8
CENTRO
10
70.000
20
3.500
11
75.000
21
3.500
0
LINE
8
CENTRO
10
72.500
20
1.000
11
72.500
21
6.000
0
TEXT
8
COTAS
10
74.700
20
5.700
40
1.20
1
H4 (72.50, 3.50) D3.2
0
TEXT
8
COTAS
10
0.000
20
-4.000
40
1.50
1
ScaraNode 76.0 x 64.0 mm - origem no canto inferior esquerdo
0
ENDSEC
0
EOF
