M48
; DRILL file KiCad 10.0.6 date 2026-09-25T13:32:17
; FORMAT={-:-/ absolute / metric / decimal}
; #@! TF.CreationDate,2026-09-25T13:32:17-03:00
; #@! TF.GenerationSoftware,Kicad,Pcbnew,10.0.6
; #@! TF.FileFunction,MixedPlating,1,2
FMAT,2
METRIC
; #@! TA.AperFunction,Plated,PTH,ComponentDrill
T1C1.000
; #@! TA.AperFunction,Plated,PTH,ComponentDrill
T2C1.600
; #@! TA.AperFunction,NonPlated,NPTH,ComponentDrill
T3C3.200
%
G90
G05
T1
X36.84Y-70.4
X38.4Y-82.5
X38.4Y-91.5
X38.4Y-98.5
X38.46Y-75.5
X40.9Y-82.5
X40.9Y-91.5
X40.9Y-98.5
X41.0Y-75.5
X44.5Y-58.2
X44.642Y-83.08
X44.642Y-90.7
X44.642Y-95.78
X47.0Y-58.2
X47.0Y-70.4
X51.0Y-58.4
X54.802Y-83.08
X54.802Y-90.7
X54.802Y-95.78
X55.0Y-102.2
X55.0Y-104.7
X56.895Y-85.62
X56.895Y-88.12
X56.895Y-90.7
X56.895Y-93.2
X56.895Y-95.78
X56.895Y-98.28
X59.92Y-102.6
X59.92Y-110.22
X59.92Y-114.32
X60.0Y-78.0
X60.0Y-80.54
X60.0Y-83.08
X60.0Y-85.62
X60.0Y-88.16
X60.0Y-90.7
X60.0Y-93.24
X60.0Y-95.78
X60.0Y-98.32
X61.16Y-58.4
X62.42Y-114.32
X62.46Y-102.6
X62.46Y-110.22
X62.85Y-90.7
X62.85Y-95.78
X64.92Y-114.32
X65.0Y-102.6
X65.0Y-110.22
X66.14Y-73.0
X67.42Y-114.32
X67.54Y-102.6
X67.54Y-110.22
X69.381Y-82.917
X69.381Y-87.997
X70.08Y-102.6
X70.08Y-110.22
X71.8Y-80.0
X71.8Y-90.16
X72.62Y-102.6
X72.62Y-110.22
X73.8Y-70.38
X75.16Y-102.6
X75.16Y-110.22
X75.24Y-78.0
X75.24Y-80.54
X75.24Y-83.08
X75.24Y-85.62
X75.24Y-88.16
X75.24Y-90.7
X75.24Y-93.24
X75.24Y-95.78
X75.24Y-98.32
X76.3Y-70.38
X76.3Y-73.0
X77.7Y-102.6
X77.7Y-110.22
X79.0Y-70.38
X79.0Y-80.54
X79.0Y-88.16
X79.0Y-90.7
X80.24Y-102.6
X80.24Y-110.22
X81.6Y-72.4
X82.78Y-102.6
X82.78Y-110.22
X82.86Y-78.0
X82.86Y-80.54
X82.86Y-83.08
X82.86Y-85.62
X82.86Y-88.16
X82.86Y-90.7
X82.86Y-93.24
X82.86Y-95.78
X85.4Y-107.0
X86.4Y-110.5
X86.4Y-113.04
X87.6Y-103.8
X88.94Y-110.5
X88.94Y-113.04
X90.0Y-100.6
X91.48Y-110.5
X91.48Y-113.04
X91.76Y-72.4
X95.56Y-78.0
X95.56Y-80.54
X95.56Y-83.08
X95.56Y-85.62
X95.56Y-88.16
X95.56Y-90.7
X95.56Y-93.24
X95.56Y-95.78
X95.56Y-107.0
X95.8Y-70.4
X97.76Y-103.8
X98.4Y-78.0
X98.4Y-80.5
X100.16Y-100.6
X100.8Y-70.4
T2
X82.0Y-59.0
X94.7Y-59.0
X100.72Y-59.0
X105.4Y-79.28
X105.4Y-84.36
X105.4Y-89.44
X105.4Y-94.52
X105.8Y-59.0
T3
X38.3Y-57.9
X38.3Y-114.9
X107.3Y-72.4
X107.3Y-114.9
M30
