G04 #@! TF.GenerationSoftware,KiCad,Pcbnew,10.0.6*
G04 #@! TF.CreationDate,2026-09-25T08:25:03-03:00*
G04 #@! TF.ProjectId,ScaraNode,53636172-614e-46f6-9465-2e6b69636164,rev?*
G04 #@! TF.SameCoordinates,Original*
G04 #@! TF.FileFunction,Copper,L2,Bot*
G04 #@! TF.FilePolarity,Positive*
%FSLAX46Y46*%
G04 Gerber Fmt 4.6, Leading zero omitted, Abs format (unit mm)*
G04 Created by KiCad (PCBNEW 10.0.6) date 2026-09-25 08:25:03*
%MOMM*%
%LPD*%
G01*
G04 APERTURE LIST*
G04 Aperture macros list*
%AMRoundRect*
0 Rectangle with rounded corners*
0 $1 Rounding radius*
0 $2 $3 $4 $5 $6 $7 $8 $9 X,Y pos of 4 corners*
0 Add a 4 corners polygon primitive as box body*
4,1,4,$2,$3,$4,$5,$6,$7,$8,$9,$2,$3,0*
0 Add four circle primitives for the rounded corners*
1,1,$1+$1,$2,$3*
1,1,$1+$1,$4,$5*
1,1,$1+$1,$6,$7*
1,1,$1+$1,$8,$9*
0 Add four rect primitives between the rounded corners*
20,1,$1+$1,$2,$3,$4,$5,0*
20,1,$1+$1,$4,$5,$6,$7,0*
20,1,$1+$1,$6,$7,$8,$9,0*
20,1,$1+$1,$8,$9,$2,$3,0*%
G04 Aperture macros list end*
G04 #@! TA.AperFunction,ComponentPad*
%ADD10O,1.800000X2.400000*%
G04 #@! TD*
G04 #@! TA.AperFunction,ComponentPad*
%ADD11RoundRect,0.250000X-1.350000X-1.350000X1.350000X-1.350000X1.350000X1.350000X-1.350000X1.350000X0*%
G04 #@! TD*
G04 #@! TA.AperFunction,ComponentPad*
%ADD12C,3.200000*%
G04 #@! TD*
G04 #@! TA.AperFunction,ComponentPad*
%ADD13RoundRect,0.288462X1.211538X1.211538X-1.211538X1.211538X-1.211538X-1.211538X1.211538X-1.211538X0*%
G04 #@! TD*
G04 #@! TA.AperFunction,ComponentPad*
%ADD14C,3.000000*%
G04 #@! TD*
G04 #@! TA.AperFunction,ComponentPad*
%ADD15O,2.600000X1.800000*%
G04 #@! TD*
G04 #@! TA.AperFunction,ComponentPad*
%ADD16R,2.600000X1.800000*%
G04 #@! TD*
G04 #@! TA.AperFunction,ComponentPad*
%ADD17O,2.400000X1.800000*%
G04 #@! TD*
G04 #@! TA.AperFunction,ComponentPad*
%ADD18RoundRect,0.250001X-0.949999X-0.949999X0.949999X-0.949999X0.949999X0.949999X-0.949999X0.949999X0*%
G04 #@! TD*
G04 #@! TA.AperFunction,ComponentPad*
%ADD19C,2.400000*%
G04 #@! TD*
G04 #@! TA.AperFunction,ComponentPad*
%ADD20C,2.000000*%
G04 #@! TD*
G04 #@! TA.AperFunction,ComponentPad*
%ADD21RoundRect,0.360000X-0.840000X-0.840000X0.840000X-0.840000X0.840000X0.840000X-0.840000X0.840000X0*%
G04 #@! TD*
G04 #@! TA.AperFunction,ComponentPad*
%ADD22C,1.800000*%
G04 #@! TD*
G04 #@! TA.AperFunction,ComponentPad*
%ADD23R,1.900000X1.900000*%
G04 #@! TD*
G04 #@! TA.AperFunction,ComponentPad*
%ADD24C,1.900000*%
G04 #@! TD*
G04 #@! TA.AperFunction,ComponentPad*
%ADD25RoundRect,0.281250X0.618750X-0.918750X0.618750X0.918750X-0.618750X0.918750X-0.618750X-0.918750X0*%
G04 #@! TD*
G04 #@! TA.AperFunction,ComponentPad*
%ADD26RoundRect,0.288462X1.211538X-1.211538X1.211538X1.211538X-1.211538X1.211538X-1.211538X-1.211538X0*%
G04 #@! TD*
G04 #@! TA.AperFunction,Conductor*
%ADD27C,1.200000*%
G04 #@! TD*
G04 #@! TA.AperFunction,Conductor*
%ADD28C,2.500000*%
G04 #@! TD*
G04 #@! TA.AperFunction,Conductor*
%ADD29C,1.500000*%
G04 #@! TD*
G04 #@! TA.AperFunction,Conductor*
%ADD30C,1.800000*%
G04 #@! TD*
G04 APERTURE END LIST*
D10*
X40900000Y-96000000D03*
X38360000Y-96000000D03*
D11*
X82000000Y-59000000D03*
D12*
X94700000Y-59000000D03*
D13*
X105800000Y-59000000D03*
D14*
X100720000Y-59000000D03*
D15*
X60000000Y-83080000D03*
D16*
X60000000Y-78000000D03*
D15*
X60000000Y-80540000D03*
X75240000Y-78000000D03*
X75240000Y-80540000D03*
X75240000Y-83080000D03*
X75240000Y-85620000D03*
X75240000Y-88160000D03*
X75240000Y-90700000D03*
X75240000Y-93240000D03*
X75240000Y-95780000D03*
X75240000Y-98320000D03*
X60000000Y-98320000D03*
X60000000Y-95780000D03*
X60000000Y-93240000D03*
X60000000Y-90700000D03*
X60000000Y-88160000D03*
X60000000Y-85620000D03*
D17*
X56800000Y-95780000D03*
X56800000Y-98280000D03*
D18*
X51000000Y-58400000D03*
D19*
X61160000Y-58400000D03*
D16*
X82860000Y-78000000D03*
D15*
X82860000Y-80540000D03*
X82860000Y-83080000D03*
X82860000Y-85620000D03*
X82860000Y-88160000D03*
X82860000Y-90700000D03*
X82860000Y-93240000D03*
X82860000Y-95780000D03*
X95560000Y-95780000D03*
X95560000Y-93240000D03*
X95560000Y-90700000D03*
X95560000Y-88160000D03*
X95560000Y-85620000D03*
X95560000Y-83080000D03*
X95560000Y-80540000D03*
X95560000Y-78000000D03*
D20*
X87600000Y-103800000D03*
X97760000Y-103800000D03*
D10*
X44500000Y-58200000D03*
X47040000Y-58200000D03*
D17*
X55000000Y-101200000D03*
X55000000Y-103700000D03*
D20*
X79000000Y-70380000D03*
X79000000Y-80540000D03*
X90000000Y-100600000D03*
X100160000Y-100600000D03*
D10*
X40900000Y-82000000D03*
X38360000Y-82000000D03*
D20*
X91760000Y-72400000D03*
X81600000Y-72400000D03*
D21*
X95800000Y-70400000D03*
D19*
X100800000Y-70400000D03*
D22*
X62850000Y-95780000D03*
X66660000Y-89180886D03*
D17*
X56800000Y-85620000D03*
X56800000Y-88120000D03*
D20*
X47000000Y-71400000D03*
X36840000Y-71400000D03*
X54000000Y-90700000D03*
X43840000Y-90700000D03*
D17*
X56800000Y-90700000D03*
X56800000Y-93200000D03*
D20*
X70500000Y-80000000D03*
X70500000Y-90160000D03*
D17*
X98400000Y-78000000D03*
X98400000Y-80500000D03*
D23*
X91480000Y-110500000D03*
D24*
X91480000Y-113040000D03*
X88940000Y-110500000D03*
X88940000Y-113040000D03*
X86400000Y-110500000D03*
X86400000Y-113040000D03*
D10*
X59920000Y-114320000D03*
X62460000Y-114320000D03*
X65000000Y-114320000D03*
X67540000Y-114320000D03*
D20*
X48000000Y-98700000D03*
X48000000Y-103780000D03*
D25*
X59920000Y-109220000D03*
D10*
X62460000Y-109220000D03*
X65000000Y-109220000D03*
X67540000Y-109220000D03*
X70080000Y-109220000D03*
X72620000Y-109220000D03*
X75160000Y-109220000D03*
X77700000Y-109220000D03*
X80240000Y-109220000D03*
X82780000Y-109220000D03*
X82780000Y-101600000D03*
X80240000Y-101600000D03*
X77700000Y-101600000D03*
X75160000Y-101600000D03*
X72620000Y-101600000D03*
X70080000Y-101600000D03*
X67540000Y-101600000D03*
X65000000Y-101600000D03*
X62460000Y-101600000D03*
X59920000Y-101600000D03*
D20*
X76300000Y-73000000D03*
X66140000Y-73000000D03*
D23*
X79000000Y-88160000D03*
D24*
X79000000Y-90700000D03*
D23*
X41000000Y-75500000D03*
D24*
X38460000Y-75500000D03*
D22*
X62850000Y-90700000D03*
X62850000Y-83080000D03*
D26*
X105400000Y-94520000D03*
D14*
X105400000Y-89440000D03*
X105400000Y-84360000D03*
X105400000Y-79280000D03*
D20*
X54000000Y-95780000D03*
X43840000Y-95780000D03*
X54000000Y-83080000D03*
X43840000Y-83080000D03*
D10*
X76300000Y-70380000D03*
X73800000Y-70380000D03*
X40900000Y-89000000D03*
X38360000Y-89000000D03*
D20*
X85400000Y-107000000D03*
X95560000Y-107000000D03*
D27*
X70080000Y-98320000D02*
X70080000Y-101600000D01*
X75240000Y-98320000D02*
X70080000Y-98320000D01*
X75240000Y-95780000D02*
X82860000Y-95780000D01*
X75240000Y-95780000D02*
X67540000Y-95780000D01*
X67540000Y-95780000D02*
X67540000Y-101600000D01*
X65000000Y-93240000D02*
X65000000Y-101600000D01*
X75240000Y-93240000D02*
X65000000Y-93240000D01*
X75240000Y-93240000D02*
X82860000Y-93240000D01*
X75240000Y-90700000D02*
X79000000Y-90700000D01*
X79000000Y-80539999D02*
X75240000Y-80539999D01*
X72500000Y-78000000D02*
X70500000Y-80000000D01*
X75240000Y-78000000D02*
X82860000Y-78000000D01*
X75240000Y-78000000D02*
X72500000Y-78000000D01*
X60000000Y-95780000D02*
X54000000Y-95780000D01*
X60000000Y-95780000D02*
X62850000Y-95780000D01*
X60000000Y-90700000D02*
X62850000Y-90700000D01*
X60000000Y-90700000D02*
X54000000Y-90700000D01*
X43840000Y-83080000D02*
X40900000Y-82000000D01*
X60000000Y-85620000D02*
X45000000Y-85620000D01*
X45000000Y-85620000D02*
X43840000Y-83080000D01*
X91100000Y-75400000D02*
X91100000Y-93240000D01*
X100160000Y-100600000D02*
X97760000Y-103800000D01*
X66660000Y-89180886D02*
X70500000Y-90160000D01*
X91100000Y-93240000D02*
X91100000Y-97900000D01*
X60000000Y-83080000D02*
X63200000Y-83080000D01*
X91100000Y-97900000D02*
X100160000Y-97900000D01*
X100160000Y-97900000D02*
X100160000Y-100600000D01*
X63200000Y-83080000D02*
X63200000Y-75400000D01*
X63200000Y-75400000D02*
X91100000Y-75400000D01*
X66660000Y-83080000D02*
X66660000Y-89180886D01*
X91100000Y-93240000D02*
X95560000Y-93240000D01*
X97760000Y-103800000D02*
X95560000Y-107000000D01*
X63200000Y-83080000D02*
X66660000Y-83080000D01*
X60000000Y-83080000D02*
X54000000Y-83080000D01*
D28*
X105800000Y-59000000D02*
X105800000Y-62500000D01*
X105800000Y-62500000D02*
X101500000Y-66000000D01*
D27*
X98400000Y-80500000D02*
X95560000Y-80539999D01*
D29*
X38360000Y-82000000D02*
X38360000Y-96000000D01*
D27*
X101500000Y-66000000D02*
X100800000Y-70400000D01*
D29*
X36100000Y-101200000D02*
X57600000Y-101200000D01*
X57600000Y-101200000D02*
X57600000Y-114320000D01*
X57600000Y-101200000D02*
X59920000Y-101600000D01*
X36100000Y-78000000D02*
X36100000Y-101200000D01*
X60000000Y-78000000D02*
X36100000Y-78000000D01*
X57600000Y-114320000D02*
X59920000Y-114320000D01*
D28*
X82000000Y-62800000D02*
X94800000Y-62800000D01*
D27*
X95560000Y-78000000D02*
X98400000Y-78000000D01*
D28*
X82000000Y-59000000D02*
X82000000Y-62800000D01*
D27*
X94800000Y-72400000D02*
X91760000Y-72400000D01*
X94800000Y-70400000D02*
X95800000Y-70400000D01*
D29*
X44500000Y-62800000D02*
X44500000Y-58200000D01*
D28*
X94800000Y-62800000D02*
X94800000Y-75500000D01*
X82000000Y-62800000D02*
X44500000Y-62800000D01*
X51000000Y-62800000D02*
X51000000Y-58400000D01*
D29*
X94800000Y-75500000D02*
X95560000Y-78000000D01*
D27*
X47000000Y-62800000D02*
X47000000Y-71400000D01*
D30*
X95560000Y-83080000D02*
X101000000Y-83080000D01*
X101000000Y-83080000D02*
X105400000Y-79280000D01*
X95560000Y-85620000D02*
X102000000Y-85620000D01*
X102000000Y-85620000D02*
X105400000Y-84360000D01*
X95560000Y-88160000D02*
X102000000Y-88160000D01*
X102000000Y-88160000D02*
X105400000Y-89440000D01*
X101000000Y-90700000D02*
X105400000Y-94520000D01*
X95560000Y-90700000D02*
X101000000Y-90700000D01*
D27*
X79000000Y-88160000D02*
X82860000Y-88160000D01*
X85400000Y-85620000D02*
X85400000Y-108500000D01*
X82860000Y-85620000D02*
X85400000Y-85620000D01*
X85400000Y-108500000D02*
X86400000Y-109700000D01*
X86400000Y-109700000D02*
X86400000Y-110500000D01*
X82860000Y-83080000D02*
X87300000Y-83080000D01*
X87300000Y-83080000D02*
X87300000Y-100000000D01*
X87300000Y-100000000D02*
X87600000Y-100300000D01*
X87600000Y-100300000D02*
X87600000Y-108200000D01*
X88940000Y-109539999D02*
X88940000Y-110500000D01*
X87600000Y-108200000D02*
X88940000Y-109539999D01*
X89200000Y-80539999D02*
X89200000Y-99000000D01*
X91480000Y-109500000D02*
X91480000Y-110500000D01*
X90000000Y-107000000D02*
X91480000Y-109500000D01*
X89200000Y-99000000D02*
X90000000Y-99800000D01*
X82860000Y-80539999D02*
X89200000Y-80539999D01*
X90000000Y-99800000D02*
X90000000Y-107000000D01*
X62460000Y-109220000D02*
X62460000Y-114320000D01*
X65000000Y-109220000D02*
X65000000Y-114320000D01*
X67540000Y-109220000D02*
X67540000Y-114320000D01*
X43840000Y-89000000D02*
X40900000Y-89000000D01*
X43840000Y-90700000D02*
X43840000Y-89000000D01*
X43840000Y-95780000D02*
X43840000Y-96000000D01*
X43840000Y-96000000D02*
X40900000Y-96000000D01*
D28*
X100720000Y-59000000D02*
X94700000Y-59000000D01*
D27*
X76300000Y-70380000D02*
X79000000Y-70380000D01*
X79000000Y-70380000D02*
X81600000Y-72400000D01*
X76300000Y-70380000D02*
X76300000Y-73000000D01*
X36840000Y-71400000D02*
X38460000Y-75500000D01*
G04 #@! TA.AperFunction,Conductor*
G36*
X109823798Y-54920028D02*
G01*
X109935026Y-54976702D01*
X110023298Y-55064974D01*
X110079972Y-55176202D01*
X110099500Y-55299500D01*
X110099500Y-117500500D01*
X110079972Y-117623798D01*
X110023298Y-117735026D01*
X109935026Y-117823298D01*
X109823798Y-117879972D01*
X109700500Y-117899500D01*
X35699500Y-117899500D01*
X35576202Y-117879972D01*
X35464974Y-117823298D01*
X35376702Y-117735026D01*
X35320028Y-117623798D01*
X35300500Y-117500500D01*
X35300500Y-114675435D01*
X36599500Y-114675435D01*
X36599500Y-114924565D01*
X36627372Y-115136279D01*
X36632018Y-115171566D01*
X36632019Y-115171571D01*
X36696492Y-115412190D01*
X36696496Y-115412200D01*
X36696498Y-115412207D01*
X36791836Y-115642373D01*
X36791837Y-115642374D01*
X36791837Y-115642375D01*
X36916399Y-115858124D01*
X36916404Y-115858132D01*
X37068057Y-116055770D01*
X37068062Y-116055776D01*
X37244224Y-116231938D01*
X37244228Y-116231941D01*
X37244229Y-116231942D01*
X37441867Y-116383595D01*
X37441871Y-116383597D01*
X37441873Y-116383599D01*
X37657627Y-116508164D01*
X37887793Y-116603502D01*
X37887803Y-116603504D01*
X37887809Y-116603507D01*
X38092686Y-116658403D01*
X38128435Y-116667982D01*
X38375435Y-116700500D01*
X38375440Y-116700500D01*
X38624560Y-116700500D01*
X38624565Y-116700500D01*
X38871565Y-116667982D01*
X38984328Y-116637767D01*
X39112190Y-116603507D01*
X39112193Y-116603505D01*
X39112207Y-116603502D01*
X39342373Y-116508164D01*
X39558127Y-116383599D01*
X39755776Y-116231938D01*
X39931938Y-116055776D01*
X40083599Y-115858127D01*
X40208164Y-115642373D01*
X40303502Y-115412207D01*
X40305050Y-115406433D01*
X40337767Y-115284328D01*
X40367982Y-115171565D01*
X40400500Y-114924565D01*
X40400500Y-114675435D01*
X40367982Y-114428435D01*
X40358403Y-114392686D01*
X40303507Y-114187809D01*
X40303504Y-114187803D01*
X40303502Y-114187793D01*
X40208164Y-113957627D01*
X40083599Y-113741873D01*
X40083597Y-113741871D01*
X40083595Y-113741867D01*
X39931942Y-113544229D01*
X39931941Y-113544228D01*
X39931938Y-113544224D01*
X39755776Y-113368062D01*
X39755771Y-113368058D01*
X39755770Y-113368057D01*
X39558132Y-113216404D01*
X39558124Y-113216399D01*
X39390363Y-113119543D01*
X39342373Y-113091836D01*
X39112207Y-112996498D01*
X39112200Y-112996496D01*
X39112190Y-112996492D01*
X38871571Y-112932019D01*
X38871566Y-112932018D01*
X38830398Y-112926598D01*
X38624565Y-112899500D01*
X38375435Y-112899500D01*
X38199006Y-112922727D01*
X38128433Y-112932018D01*
X38128428Y-112932019D01*
X37887809Y-112996492D01*
X37887799Y-112996496D01*
X37887796Y-112996497D01*
X37887793Y-112996498D01*
X37657627Y-113091836D01*
X37657625Y-113091837D01*
X37657624Y-113091837D01*
X37441875Y-113216399D01*
X37441867Y-113216404D01*
X37244229Y-113368057D01*
X37068057Y-113544229D01*
X36916404Y-113741867D01*
X36916399Y-113741875D01*
X36791837Y-113957624D01*
X36791837Y-113957625D01*
X36696496Y-114187799D01*
X36696492Y-114187809D01*
X36632019Y-114428428D01*
X36632018Y-114428433D01*
X36625697Y-114476445D01*
X36599500Y-114675435D01*
X35300500Y-114675435D01*
X35300500Y-105208270D01*
X47278835Y-105208270D01*
X47385802Y-105262774D01*
X47385814Y-105262779D01*
X47625329Y-105340602D01*
X47874080Y-105380000D01*
X48125920Y-105380000D01*
X48374670Y-105340602D01*
X48614185Y-105262779D01*
X48614187Y-105262778D01*
X48721163Y-105208270D01*
X48006280Y-104493387D01*
X47996255Y-104490850D01*
X47278835Y-105208270D01*
X35300500Y-105208270D01*
X35300500Y-102907355D01*
X35320028Y-102784057D01*
X35376702Y-102672829D01*
X35464974Y-102584557D01*
X35576202Y-102527883D01*
X35699500Y-102508355D01*
X35768008Y-102516465D01*
X35768273Y-102514793D01*
X35783753Y-102517244D01*
X35783757Y-102517246D01*
X35993713Y-102550500D01*
X36206287Y-102550500D01*
X46179630Y-102550500D01*
X46302928Y-102570028D01*
X46414156Y-102626702D01*
X46502428Y-102714974D01*
X46559102Y-102826202D01*
X46578630Y-102949500D01*
X46559102Y-103072798D01*
X46535140Y-103130645D01*
X46517222Y-103165808D01*
X46439397Y-103405329D01*
X46400000Y-103654079D01*
X46400000Y-103905920D01*
X46439397Y-104154670D01*
X46517221Y-104394186D01*
X46517223Y-104394191D01*
X46571728Y-104501163D01*
X46571729Y-104501164D01*
X47364310Y-103708583D01*
X47465304Y-103635206D01*
X47526486Y-103615326D01*
X47500000Y-103714174D01*
X47500000Y-103845826D01*
X47534075Y-103972993D01*
X47599901Y-104087007D01*
X47692993Y-104180099D01*
X47807007Y-104245925D01*
X47934174Y-104280000D01*
X48065826Y-104280000D01*
X48192993Y-104245925D01*
X48307007Y-104180099D01*
X48400099Y-104087007D01*
X48465925Y-103972993D01*
X48500000Y-103845826D01*
X48500000Y-103714174D01*
X48473513Y-103615327D01*
X48534693Y-103635206D01*
X48635687Y-103708581D01*
X48635687Y-103708582D01*
X49428269Y-104501164D01*
X49428270Y-104501164D01*
X49482778Y-104394187D01*
X49482779Y-104394185D01*
X49545873Y-104200000D01*
X53285267Y-104200000D01*
X53309896Y-104275800D01*
X53417083Y-104486167D01*
X53555862Y-104677181D01*
X53722818Y-104844137D01*
X53913832Y-104982916D01*
X54124201Y-105090104D01*
X54348746Y-105163064D01*
X54348753Y-105163066D01*
X54499999Y-105187020D01*
X54500000Y-105187020D01*
X54500000Y-104208884D01*
X54494705Y-104200000D01*
X53285267Y-104200000D01*
X49545873Y-104200000D01*
X49560602Y-104154670D01*
X49600000Y-103905920D01*
X49600000Y-103654079D01*
X49560602Y-103405329D01*
X49482777Y-103165808D01*
X49464860Y-103130645D01*
X49426283Y-103011920D01*
X49426282Y-102887085D01*
X49464857Y-102768360D01*
X49538232Y-102667366D01*
X49639225Y-102593990D01*
X49757950Y-102555413D01*
X49820370Y-102550500D01*
X52951102Y-102550500D01*
X53074400Y-102570028D01*
X53185628Y-102626702D01*
X53273900Y-102714974D01*
X53330574Y-102826202D01*
X53350102Y-102949500D01*
X53330574Y-103072798D01*
X53315373Y-103109494D01*
X53315897Y-103109711D01*
X53309897Y-103124196D01*
X53285266Y-103199999D01*
X53285267Y-103200000D01*
X54601000Y-103200000D01*
X54724298Y-103219528D01*
X54781617Y-103248733D01*
X54692993Y-103299901D01*
X54599901Y-103392993D01*
X54534075Y-103507007D01*
X54500000Y-103634174D01*
X54500000Y-103765826D01*
X54534075Y-103892993D01*
X54599901Y-104007007D01*
X54692993Y-104100099D01*
X54807007Y-104165925D01*
X54934174Y-104200000D01*
X55065826Y-104200000D01*
X55192993Y-104165925D01*
X55307007Y-104100099D01*
X55400099Y-104007007D01*
X55451266Y-103918382D01*
X55480472Y-103975702D01*
X55500000Y-104099000D01*
X55500000Y-105187020D01*
X55651246Y-105163066D01*
X55727199Y-105138387D01*
X55850497Y-105118858D01*
X55973795Y-105138385D01*
X56085024Y-105195058D01*
X56173296Y-105283329D01*
X56229971Y-105394557D01*
X56249500Y-105517855D01*
X56249500Y-114426287D01*
X56275430Y-114590000D01*
X56282755Y-114636248D01*
X56348442Y-114838410D01*
X56444949Y-115027817D01*
X56549388Y-115171565D01*
X56569896Y-115199792D01*
X56720208Y-115350104D01*
X56720211Y-115350106D01*
X56892182Y-115475050D01*
X56892184Y-115475051D01*
X57081588Y-115571557D01*
X57283757Y-115637246D01*
X57493713Y-115670500D01*
X57706287Y-115670500D01*
X58685211Y-115670500D01*
X58808509Y-115690028D01*
X58919737Y-115746702D01*
X58940523Y-115763088D01*
X58942490Y-115764517D01*
X59133567Y-115903343D01*
X59344008Y-116010568D01*
X59568625Y-116083551D01*
X59568626Y-116083551D01*
X59568632Y-116083553D01*
X59801908Y-116120500D01*
X59801911Y-116120500D01*
X60038089Y-116120500D01*
X60038092Y-116120500D01*
X60271368Y-116083553D01*
X60495992Y-116010568D01*
X60706433Y-115903343D01*
X60897510Y-115764517D01*
X60907864Y-115754163D01*
X61008858Y-115680787D01*
X61127583Y-115642211D01*
X61252417Y-115642211D01*
X61371142Y-115680787D01*
X61472136Y-115754163D01*
X61482490Y-115764517D01*
X61673567Y-115903343D01*
X61884008Y-116010568D01*
X62108625Y-116083551D01*
X62108626Y-116083551D01*
X62108632Y-116083553D01*
X62341908Y-116120500D01*
X62341911Y-116120500D01*
X62578089Y-116120500D01*
X62578092Y-116120500D01*
X62811368Y-116083553D01*
X63035992Y-116010568D01*
X63246433Y-115903343D01*
X63437510Y-115764517D01*
X63447864Y-115754163D01*
X63548858Y-115680787D01*
X63667583Y-115642211D01*
X63792417Y-115642211D01*
X63911142Y-115680787D01*
X64012136Y-115754163D01*
X64022490Y-115764517D01*
X64213567Y-115903343D01*
X64424008Y-116010568D01*
X64648625Y-116083551D01*
X64648626Y-116083551D01*
X64648632Y-116083553D01*
X64881908Y-116120500D01*
X64881911Y-116120500D01*
X65118089Y-116120500D01*
X65118092Y-116120500D01*
X65351368Y-116083553D01*
X65575992Y-116010568D01*
X65786433Y-115903343D01*
X65977510Y-115764517D01*
X65987864Y-115754163D01*
X66088858Y-115680787D01*
X66207583Y-115642211D01*
X66332417Y-115642211D01*
X66451142Y-115680787D01*
X66552136Y-115754163D01*
X66562490Y-115764517D01*
X66753567Y-115903343D01*
X66964008Y-116010568D01*
X67188625Y-116083551D01*
X67188626Y-116083551D01*
X67188632Y-116083553D01*
X67421908Y-116120500D01*
X67421911Y-116120500D01*
X67658089Y-116120500D01*
X67658092Y-116120500D01*
X67891368Y-116083553D01*
X68115992Y-116010568D01*
X68326433Y-115903343D01*
X68517510Y-115764517D01*
X68684517Y-115597510D01*
X68823343Y-115406433D01*
X68930568Y-115195992D01*
X69003553Y-114971368D01*
X69040500Y-114738092D01*
X69040500Y-114675435D01*
X105299500Y-114675435D01*
X105299500Y-114924565D01*
X105327372Y-115136279D01*
X105332018Y-115171566D01*
X105332019Y-115171571D01*
X105396492Y-115412190D01*
X105396496Y-115412200D01*
X105396498Y-115412207D01*
X105491836Y-115642373D01*
X105491837Y-115642374D01*
X105491837Y-115642375D01*
X105616399Y-115858124D01*
X105616404Y-115858132D01*
X105768057Y-116055770D01*
X105768062Y-116055776D01*
X105944224Y-116231938D01*
X105944228Y-116231941D01*
X105944229Y-116231942D01*
X106141867Y-116383595D01*
X106141871Y-116383597D01*
X106141873Y-116383599D01*
X106357627Y-116508164D01*
X106587793Y-116603502D01*
X106587803Y-116603504D01*
X106587809Y-116603507D01*
X106792686Y-116658403D01*
X106828435Y-116667982D01*
X107075435Y-116700500D01*
X107075440Y-116700500D01*
X107324560Y-116700500D01*
X107324565Y-116700500D01*
X107571565Y-116667982D01*
X107684328Y-116637767D01*
X107812190Y-116603507D01*
X107812193Y-116603505D01*
X107812207Y-116603502D01*
X108042373Y-116508164D01*
X108258127Y-116383599D01*
X108455776Y-116231938D01*
X108631938Y-116055776D01*
X108783599Y-115858127D01*
X108908164Y-115642373D01*
X109003502Y-115412207D01*
X109005050Y-115406433D01*
X109037767Y-115284328D01*
X109067982Y-115171565D01*
X109100500Y-114924565D01*
X109100500Y-114675435D01*
X109067982Y-114428435D01*
X109058403Y-114392686D01*
X109003507Y-114187809D01*
X109003504Y-114187803D01*
X109003502Y-114187793D01*
X108908164Y-113957627D01*
X108783599Y-113741873D01*
X108783597Y-113741871D01*
X108783595Y-113741867D01*
X108631942Y-113544229D01*
X108631941Y-113544228D01*
X108631938Y-113544224D01*
X108455776Y-113368062D01*
X108455771Y-113368058D01*
X108455770Y-113368057D01*
X108258132Y-113216404D01*
X108258124Y-113216399D01*
X108090363Y-113119543D01*
X108042373Y-113091836D01*
X107812207Y-112996498D01*
X107812200Y-112996496D01*
X107812190Y-112996492D01*
X107571571Y-112932019D01*
X107571566Y-112932018D01*
X107530398Y-112926598D01*
X107324565Y-112899500D01*
X107075435Y-112899500D01*
X106899006Y-112922727D01*
X106828433Y-112932018D01*
X106828428Y-112932019D01*
X106587809Y-112996492D01*
X106587799Y-112996496D01*
X106587796Y-112996497D01*
X106587793Y-112996498D01*
X106357627Y-113091836D01*
X106357625Y-113091837D01*
X106357624Y-113091837D01*
X106141875Y-113216399D01*
X106141867Y-113216404D01*
X105944229Y-113368057D01*
X105768057Y-113544229D01*
X105616404Y-113741867D01*
X105616399Y-113741875D01*
X105491837Y-113957624D01*
X105491837Y-113957625D01*
X105396496Y-114187799D01*
X105396492Y-114187809D01*
X105332019Y-114428428D01*
X105332018Y-114428433D01*
X105325697Y-114476445D01*
X105299500Y-114675435D01*
X69040500Y-114675435D01*
X69040500Y-114431094D01*
X85716009Y-114431094D01*
X85805003Y-114476439D01*
X85805016Y-114476445D01*
X86037032Y-114551831D01*
X86278015Y-114590000D01*
X86521985Y-114590000D01*
X86762967Y-114551831D01*
X86994986Y-114476444D01*
X86994998Y-114476439D01*
X87083988Y-114431095D01*
X87083987Y-114431094D01*
X88256009Y-114431094D01*
X88345003Y-114476439D01*
X88345016Y-114476445D01*
X88577032Y-114551831D01*
X88818015Y-114590000D01*
X89061985Y-114590000D01*
X89302967Y-114551831D01*
X89534986Y-114476444D01*
X89534998Y-114476439D01*
X89623988Y-114431095D01*
X89623987Y-114431094D01*
X90796009Y-114431094D01*
X90885003Y-114476439D01*
X90885016Y-114476445D01*
X91117032Y-114551831D01*
X91358015Y-114590000D01*
X91601985Y-114590000D01*
X91842967Y-114551831D01*
X92074986Y-114476444D01*
X92074998Y-114476439D01*
X92163988Y-114431095D01*
X91479999Y-113747106D01*
X90796009Y-114431094D01*
X89623987Y-114431094D01*
X88939999Y-113747106D01*
X88256009Y-114431094D01*
X87083987Y-114431094D01*
X86399999Y-113747106D01*
X85716009Y-114431094D01*
X69040500Y-114431094D01*
X69040500Y-113901908D01*
X69003553Y-113668632D01*
X68930568Y-113444008D01*
X68823343Y-113233567D01*
X68816702Y-113224426D01*
X68760028Y-113113197D01*
X68740500Y-112989900D01*
X68740500Y-112918014D01*
X84850000Y-112918014D01*
X84850000Y-113161985D01*
X84888167Y-113402965D01*
X84963560Y-113634996D01*
X85008903Y-113723988D01*
X85692893Y-113039999D01*
X85627068Y-112974174D01*
X85900000Y-112974174D01*
X85900000Y-113105826D01*
X85934075Y-113232993D01*
X85999901Y-113347007D01*
X86092993Y-113440099D01*
X86207007Y-113505925D01*
X86334174Y-113540000D01*
X86465826Y-113540000D01*
X86592993Y-113505925D01*
X86707007Y-113440099D01*
X86800099Y-113347007D01*
X86865925Y-113232993D01*
X86900000Y-113105826D01*
X86900000Y-113039999D01*
X87107105Y-113039999D01*
X87669999Y-113602892D01*
X88232892Y-113039999D01*
X88167067Y-112974174D01*
X88440000Y-112974174D01*
X88440000Y-113105826D01*
X88474075Y-113232993D01*
X88539901Y-113347007D01*
X88632993Y-113440099D01*
X88747007Y-113505925D01*
X88874174Y-113540000D01*
X89005826Y-113540000D01*
X89132993Y-113505925D01*
X89247007Y-113440099D01*
X89340099Y-113347007D01*
X89405925Y-113232993D01*
X89440000Y-113105826D01*
X89440000Y-112974174D01*
X89405925Y-112847007D01*
X89340099Y-112732993D01*
X89247007Y-112639901D01*
X89132993Y-112574075D01*
X89005826Y-112540000D01*
X88874174Y-112540000D01*
X88747007Y-112574075D01*
X88632993Y-112639901D01*
X88539901Y-112732993D01*
X88474075Y-112847007D01*
X88440000Y-112974174D01*
X88167067Y-112974174D01*
X87765468Y-112572574D01*
X87574530Y-112572574D01*
X87107105Y-113039999D01*
X86900000Y-113039999D01*
X86900000Y-112974174D01*
X86865925Y-112847007D01*
X86800099Y-112732993D01*
X86707007Y-112639901D01*
X86592993Y-112574075D01*
X86465826Y-112540000D01*
X86334174Y-112540000D01*
X86207007Y-112574075D01*
X86092993Y-112639901D01*
X85999901Y-112732993D01*
X85934075Y-112847007D01*
X85900000Y-112974174D01*
X85627068Y-112974174D01*
X85127860Y-112474966D01*
X84998359Y-112376704D01*
X84963561Y-112445000D01*
X84963556Y-112445015D01*
X84888167Y-112677034D01*
X84850000Y-112918014D01*
X68740500Y-112918014D01*
X68740500Y-111172649D01*
X68760028Y-111049351D01*
X68816702Y-110938123D01*
X68904974Y-110849851D01*
X69016202Y-110793177D01*
X69139500Y-110773649D01*
X69262798Y-110793177D01*
X69320629Y-110817131D01*
X69504008Y-110910568D01*
X69504010Y-110910568D01*
X69504011Y-110910569D01*
X69728625Y-110983551D01*
X69728626Y-110983551D01*
X69728632Y-110983553D01*
X69961908Y-111020500D01*
X69961911Y-111020500D01*
X70198089Y-111020500D01*
X70198092Y-111020500D01*
X70431368Y-110983553D01*
X70655992Y-110910568D01*
X70866433Y-110803343D01*
X71057510Y-110664517D01*
X71067864Y-110654163D01*
X71168858Y-110580787D01*
X71287583Y-110542211D01*
X71412417Y-110542211D01*
X71531142Y-110580787D01*
X71632136Y-110654163D01*
X71642490Y-110664517D01*
X71833567Y-110803343D01*
X71950798Y-110863075D01*
X72044008Y-110910568D01*
X72268625Y-110983551D01*
X72268626Y-110983551D01*
X72268632Y-110983553D01*
X72501908Y-111020500D01*
X72501911Y-111020500D01*
X72738089Y-111020500D01*
X72738092Y-111020500D01*
X72971368Y-110983553D01*
X73195992Y-110910568D01*
X73406433Y-110803343D01*
X73597510Y-110664517D01*
X73607864Y-110654163D01*
X73708858Y-110580787D01*
X73827583Y-110542211D01*
X73952417Y-110542211D01*
X74071142Y-110580787D01*
X74172136Y-110654163D01*
X74182490Y-110664517D01*
X74373567Y-110803343D01*
X74490798Y-110863075D01*
X74584008Y-110910568D01*
X74808625Y-110983551D01*
X74808626Y-110983551D01*
X74808632Y-110983553D01*
X75041908Y-111020500D01*
X75041911Y-111020500D01*
X75278089Y-111020500D01*
X75278092Y-111020500D01*
X75511368Y-110983553D01*
X75735992Y-110910568D01*
X75946433Y-110803343D01*
X76137510Y-110664517D01*
X76147864Y-110654163D01*
X76248858Y-110580787D01*
X76367583Y-110542211D01*
X76492417Y-110542211D01*
X76611142Y-110580787D01*
X76712136Y-110654163D01*
X76722490Y-110664517D01*
X76913567Y-110803343D01*
X77030798Y-110863075D01*
X77124008Y-110910568D01*
X77348625Y-110983551D01*
X77348626Y-110983551D01*
X77348632Y-110983553D01*
X77581908Y-111020500D01*
X77581911Y-111020500D01*
X77818089Y-111020500D01*
X77818092Y-111020500D01*
X78051368Y-110983553D01*
X78275992Y-110910568D01*
X78486433Y-110803343D01*
X78677510Y-110664517D01*
X78687864Y-110654163D01*
X78788858Y-110580787D01*
X78907583Y-110542211D01*
X79032417Y-110542211D01*
X79151142Y-110580787D01*
X79252136Y-110654163D01*
X79262490Y-110664517D01*
X79453567Y-110803343D01*
X79570798Y-110863075D01*
X79664008Y-110910568D01*
X79888625Y-110983551D01*
X79888626Y-110983551D01*
X79888632Y-110983553D01*
X80121908Y-111020500D01*
X80121911Y-111020500D01*
X80358089Y-111020500D01*
X80358092Y-111020500D01*
X80591368Y-110983553D01*
X80815992Y-110910568D01*
X81026433Y-110803343D01*
X81217510Y-110664517D01*
X81228211Y-110653815D01*
X81329194Y-110580441D01*
X81447918Y-110541859D01*
X81572752Y-110541853D01*
X81691479Y-110580424D01*
X81792476Y-110653795D01*
X81802818Y-110664137D01*
X81993832Y-110802916D01*
X82204199Y-110910103D01*
X82279999Y-110934733D01*
X82280000Y-110934733D01*
X82280000Y-109285826D01*
X82314075Y-109412993D01*
X82379901Y-109527007D01*
X82472993Y-109620099D01*
X82587007Y-109685925D01*
X82714174Y-109720000D01*
X82845826Y-109720000D01*
X82972993Y-109685925D01*
X83087007Y-109620099D01*
X83180099Y-109527007D01*
X83245925Y-109412993D01*
X83280000Y-109285826D01*
X83280000Y-110934733D01*
X83355800Y-110910103D01*
X83566167Y-110802916D01*
X83757181Y-110664137D01*
X83924137Y-110497181D01*
X84062916Y-110306167D01*
X84094987Y-110243225D01*
X84168362Y-110142231D01*
X84269355Y-110068855D01*
X84388080Y-110030278D01*
X84512915Y-110030277D01*
X84631640Y-110068852D01*
X84732634Y-110142227D01*
X84806010Y-110243220D01*
X84844587Y-110361945D01*
X84849500Y-110424365D01*
X84849500Y-110622033D01*
X84887678Y-110863075D01*
X84963096Y-111095185D01*
X85073896Y-111312643D01*
X85217335Y-111510071D01*
X85217339Y-111510076D01*
X85217342Y-111510079D01*
X85217345Y-111510083D01*
X85389917Y-111682655D01*
X85587361Y-111826106D01*
X85804815Y-111936904D01*
X86008787Y-112003178D01*
X86120008Y-112059848D01*
X86167619Y-112100511D01*
X86400000Y-112332892D01*
X86632377Y-112100514D01*
X86733370Y-112027137D01*
X86791201Y-112003182D01*
X86995185Y-111936904D01*
X87212639Y-111826106D01*
X87212639Y-111826105D01*
X87226607Y-111818989D01*
X87228162Y-111822041D01*
X87315989Y-111785629D01*
X87409258Y-111774575D01*
X87930738Y-111774574D01*
X87961752Y-111779486D01*
X87993157Y-111779486D01*
X88023021Y-111789189D01*
X88054036Y-111794102D01*
X88082018Y-111808359D01*
X88111881Y-111818063D01*
X88114955Y-111819785D01*
X88127361Y-111826106D01*
X88344815Y-111936904D01*
X88548787Y-112003178D01*
X88660008Y-112059848D01*
X88707619Y-112100511D01*
X88940000Y-112332892D01*
X89172377Y-112100514D01*
X89273370Y-112027137D01*
X89331201Y-112003182D01*
X89535185Y-111936904D01*
X89697244Y-111854330D01*
X89815969Y-111815754D01*
X89940804Y-111815754D01*
X90059529Y-111854330D01*
X90121290Y-111893300D01*
X90140870Y-111908325D01*
X90226799Y-111998879D01*
X90280539Y-112111554D01*
X90296830Y-112235321D01*
X90274078Y-112358065D01*
X90214509Y-112467770D01*
X90180103Y-112507002D01*
X89647106Y-113039999D01*
X90209999Y-113602892D01*
X90772893Y-113039999D01*
X90707068Y-112974174D01*
X90980000Y-112974174D01*
X90980000Y-113105826D01*
X91014075Y-113232993D01*
X91079901Y-113347007D01*
X91172993Y-113440099D01*
X91287007Y-113505925D01*
X91414174Y-113540000D01*
X91545826Y-113540000D01*
X91672993Y-113505925D01*
X91787007Y-113440099D01*
X91880099Y-113347007D01*
X91945925Y-113232993D01*
X91980000Y-113105826D01*
X91980000Y-112974174D01*
X91945925Y-112847007D01*
X91880099Y-112732993D01*
X91787007Y-112639901D01*
X91672993Y-112574075D01*
X91545826Y-112540000D01*
X91414174Y-112540000D01*
X91287007Y-112574075D01*
X91172993Y-112639901D01*
X91079901Y-112732993D01*
X91014075Y-112847007D01*
X90980000Y-112974174D01*
X90707068Y-112974174D01*
X90464528Y-112731634D01*
X90391152Y-112630641D01*
X90352576Y-112511916D01*
X90352576Y-112387081D01*
X90391153Y-112268356D01*
X90464529Y-112167363D01*
X90565522Y-112093987D01*
X90684247Y-112055411D01*
X90746652Y-112050499D01*
X91032339Y-112050499D01*
X91155633Y-112070027D01*
X91266861Y-112126701D01*
X91314471Y-112167364D01*
X91833552Y-112686446D01*
X91833553Y-112686446D01*
X92871095Y-113723988D01*
X92916439Y-113634998D01*
X92916444Y-113634986D01*
X92991831Y-113402967D01*
X93030000Y-113161985D01*
X93030000Y-112918014D01*
X92991832Y-112677034D01*
X92916440Y-112445006D01*
X92833993Y-112283193D01*
X92795417Y-112164469D01*
X92795417Y-112039634D01*
X92833993Y-111920909D01*
X92872951Y-111859164D01*
X92954536Y-111752841D01*
X93015044Y-111606762D01*
X93030500Y-111489361D01*
X93030499Y-109510640D01*
X93015044Y-109393238D01*
X92954536Y-109247159D01*
X92954534Y-109247156D01*
X92858287Y-109121724D01*
X92858285Y-109121722D01*
X92858282Y-109121718D01*
X92858277Y-109121714D01*
X92858275Y-109121712D01*
X92732843Y-109025465D01*
X92732837Y-109025461D01*
X92674135Y-109001146D01*
X92567697Y-108935919D01*
X92504042Y-108867059D01*
X92495362Y-108855113D01*
X92474817Y-108823855D01*
X91256152Y-106765301D01*
X91210148Y-106649256D01*
X91200500Y-106562043D01*
X91200500Y-101800229D01*
X91220028Y-101676931D01*
X91276702Y-101565703D01*
X91276703Y-101565702D01*
X91368870Y-101438845D01*
X91483241Y-101214379D01*
X91561090Y-100974785D01*
X91600500Y-100725962D01*
X91600500Y-100474038D01*
X91561090Y-100225215D01*
X91483241Y-99985621D01*
X91368870Y-99761155D01*
X91350919Y-99736448D01*
X91349160Y-99734026D01*
X91292486Y-99622797D01*
X91272958Y-99499499D01*
X91292487Y-99376202D01*
X91349161Y-99264973D01*
X91437432Y-99176702D01*
X91548661Y-99120028D01*
X91671958Y-99100500D01*
X98488042Y-99100500D01*
X98611340Y-99120028D01*
X98722568Y-99176702D01*
X98810840Y-99264974D01*
X98867514Y-99376202D01*
X98887042Y-99499500D01*
X98867514Y-99622798D01*
X98810840Y-99734026D01*
X98791130Y-99761153D01*
X98676759Y-99985620D01*
X98598911Y-100225209D01*
X98559500Y-100474040D01*
X98559500Y-100600165D01*
X98539972Y-100723463D01*
X98483298Y-100834691D01*
X98479700Y-100839565D01*
X97520464Y-102118546D01*
X97430863Y-102205467D01*
X97324562Y-102258617D01*
X97145622Y-102316758D01*
X96921154Y-102431130D01*
X96717346Y-102579205D01*
X96539205Y-102757346D01*
X96391130Y-102961154D01*
X96276759Y-103185620D01*
X96198911Y-103425209D01*
X96198910Y-103425214D01*
X96198910Y-103425215D01*
X96160443Y-103668089D01*
X96159500Y-103674040D01*
X96159500Y-103885027D01*
X96139972Y-104008325D01*
X96089293Y-104111072D01*
X95250583Y-105331013D01*
X95164639Y-105421552D01*
X95054923Y-105481102D01*
X95045090Y-105484439D01*
X94945621Y-105516758D01*
X94721154Y-105631130D01*
X94517346Y-105779205D01*
X94339205Y-105957346D01*
X94191130Y-106161154D01*
X94076759Y-106385620D01*
X93998911Y-106625209D01*
X93998910Y-106625214D01*
X93998910Y-106625215D01*
X93959500Y-106874038D01*
X93959500Y-107125962D01*
X93989819Y-107317386D01*
X93998911Y-107374790D01*
X94065218Y-107578860D01*
X94076759Y-107614379D01*
X94191130Y-107838845D01*
X94339207Y-108042656D01*
X94517344Y-108220793D01*
X94721155Y-108368870D01*
X94945621Y-108483241D01*
X95185215Y-108561090D01*
X95434038Y-108600500D01*
X95434041Y-108600500D01*
X95685959Y-108600500D01*
X95685962Y-108600500D01*
X95934785Y-108561090D01*
X96174379Y-108483241D01*
X96398845Y-108368870D01*
X96602656Y-108220793D01*
X96780793Y-108042656D01*
X96928870Y-107838845D01*
X97043241Y-107614379D01*
X97121090Y-107374785D01*
X97160500Y-107125962D01*
X97160500Y-106914969D01*
X97180028Y-106791671D01*
X97230707Y-106688924D01*
X98069415Y-105468984D01*
X98155357Y-105378448D01*
X98265073Y-105318898D01*
X98274873Y-105315572D01*
X98374379Y-105283241D01*
X98598845Y-105168870D01*
X98802656Y-105020793D01*
X98980793Y-104842656D01*
X99128870Y-104638845D01*
X99243241Y-104414379D01*
X99321090Y-104174785D01*
X99360500Y-103925962D01*
X99360500Y-103799831D01*
X99380028Y-103676533D01*
X99436702Y-103565305D01*
X99440265Y-103560477D01*
X100399536Y-102281450D01*
X100489134Y-102194533D01*
X100595428Y-102141385D01*
X100774379Y-102083241D01*
X100998845Y-101968870D01*
X101202656Y-101820793D01*
X101380793Y-101642656D01*
X101528870Y-101438845D01*
X101643241Y-101214379D01*
X101721090Y-100974785D01*
X101760500Y-100725962D01*
X101760500Y-100474038D01*
X101721090Y-100225215D01*
X101643241Y-99985621D01*
X101528870Y-99761155D01*
X101510919Y-99736448D01*
X101436702Y-99634296D01*
X101380028Y-99523067D01*
X101360500Y-99399770D01*
X101360500Y-97805521D01*
X101353853Y-97763551D01*
X101330940Y-97618882D01*
X101272547Y-97439168D01*
X101186760Y-97270801D01*
X101134127Y-97198358D01*
X101075691Y-97117928D01*
X100942071Y-96984308D01*
X100789198Y-96873239D01*
X100620830Y-96787452D01*
X100441123Y-96729061D01*
X100441119Y-96729060D01*
X100441118Y-96729060D01*
X100254481Y-96699500D01*
X100254478Y-96699500D01*
X92699500Y-96699500D01*
X92576202Y-96679972D01*
X92464974Y-96623298D01*
X92376702Y-96535026D01*
X92320028Y-96423798D01*
X92300500Y-96300500D01*
X92300500Y-94839500D01*
X92320028Y-94716202D01*
X92376702Y-94604974D01*
X92464974Y-94516702D01*
X92576202Y-94460028D01*
X92699500Y-94440500D01*
X94129901Y-94440500D01*
X94253199Y-94460028D01*
X94364425Y-94516701D01*
X94373567Y-94523343D01*
X94533777Y-94604974D01*
X94584008Y-94630568D01*
X94808625Y-94703551D01*
X94808626Y-94703551D01*
X94808632Y-94703553D01*
X95041908Y-94740500D01*
X95041911Y-94740500D01*
X96078089Y-94740500D01*
X96078092Y-94740500D01*
X96311368Y-94703553D01*
X96535992Y-94630568D01*
X96746433Y-94523343D01*
X96937510Y-94384517D01*
X97104517Y-94217510D01*
X97243343Y-94026433D01*
X97350568Y-93815992D01*
X97423553Y-93591368D01*
X97460500Y-93358092D01*
X97460500Y-93121908D01*
X97423553Y-92888632D01*
X97369670Y-92722797D01*
X97350142Y-92599499D01*
X97369671Y-92476202D01*
X97426345Y-92364973D01*
X97514616Y-92276702D01*
X97625845Y-92220028D01*
X97749142Y-92200500D01*
X100290488Y-92200500D01*
X100413786Y-92220028D01*
X100525014Y-92276702D01*
X100552064Y-92298205D01*
X103162080Y-94564173D01*
X103242380Y-94659749D01*
X103289217Y-94775465D01*
X103299500Y-94865465D01*
X103299500Y-95793746D01*
X103299502Y-95793778D01*
X103305607Y-95871366D01*
X103305608Y-95871368D01*
X103353973Y-96051868D01*
X103406411Y-96154785D01*
X103438809Y-96218369D01*
X103556408Y-96363592D01*
X103701631Y-96481191D01*
X103868130Y-96566026D01*
X103868131Y-96566026D01*
X103868132Y-96566027D01*
X104048632Y-96614392D01*
X104126241Y-96620500D01*
X106673758Y-96620499D01*
X106751368Y-96614392D01*
X106931868Y-96566027D01*
X107098369Y-96481191D01*
X107243592Y-96363592D01*
X107361191Y-96218369D01*
X107446027Y-96051868D01*
X107494392Y-95871368D01*
X107500500Y-95793759D01*
X107500499Y-93246242D01*
X107494392Y-93168632D01*
X107446027Y-92988132D01*
X107361191Y-92821631D01*
X107243592Y-92676408D01*
X107180953Y-92625684D01*
X107098368Y-92558808D01*
X106931868Y-92473973D01*
X106931870Y-92473973D01*
X106751366Y-92425607D01*
X106673771Y-92419500D01*
X106673759Y-92419500D01*
X105418413Y-92419500D01*
X105295115Y-92399972D01*
X105183887Y-92343298D01*
X105156834Y-92321793D01*
X105063536Y-92240793D01*
X104983234Y-92145215D01*
X104936398Y-92029499D01*
X104927612Y-91904974D01*
X104957736Y-91783829D01*
X105023822Y-91677921D01*
X105119400Y-91597619D01*
X105235116Y-91550783D01*
X105325115Y-91540500D01*
X105537668Y-91540500D01*
X105537674Y-91540500D01*
X105810666Y-91504560D01*
X106076632Y-91433295D01*
X106331021Y-91327923D01*
X106569479Y-91190249D01*
X106787928Y-91022628D01*
X106982628Y-90827928D01*
X107095073Y-90681386D01*
X107150243Y-90609487D01*
X107150243Y-90609486D01*
X107150249Y-90609479D01*
X107287923Y-90371021D01*
X107393295Y-90116632D01*
X107464560Y-89850666D01*
X107500500Y-89577674D01*
X107500500Y-89302326D01*
X107464560Y-89029334D01*
X107393295Y-88763368D01*
X107287923Y-88508979D01*
X107150249Y-88270521D01*
X107150245Y-88270516D01*
X107150243Y-88270512D01*
X106982638Y-88052084D01*
X106982630Y-88052075D01*
X106982628Y-88052072D01*
X106787928Y-87857372D01*
X106787923Y-87857368D01*
X106787915Y-87857361D01*
X106569487Y-87689756D01*
X106569480Y-87689752D01*
X106569481Y-87689752D01*
X106569479Y-87689751D01*
X106386327Y-87584008D01*
X106331023Y-87552078D01*
X106331022Y-87552077D01*
X106331021Y-87552077D01*
X106076632Y-87446705D01*
X105810666Y-87375440D01*
X105810665Y-87375439D01*
X105810662Y-87375439D01*
X105708364Y-87361971D01*
X105537674Y-87339500D01*
X105262326Y-87339500D01*
X105107744Y-87359850D01*
X104989337Y-87375439D01*
X104723362Y-87446706D01*
X104697995Y-87457214D01*
X104688460Y-87459502D01*
X104679864Y-87464211D01*
X104627967Y-87474024D01*
X104576610Y-87486354D01*
X104566838Y-87485584D01*
X104557203Y-87487407D01*
X104504814Y-87480703D01*
X104452160Y-87476559D01*
X104443099Y-87472806D01*
X104433378Y-87471562D01*
X104404729Y-87461998D01*
X103887892Y-87267424D01*
X103779381Y-87205707D01*
X103695253Y-87113478D01*
X103643743Y-86999766D01*
X103629892Y-86875702D01*
X103655058Y-86753430D01*
X103716775Y-86644919D01*
X103809004Y-86560791D01*
X103889815Y-86519878D01*
X104395273Y-86332561D01*
X104397431Y-86332128D01*
X104399365Y-86331070D01*
X104458581Y-86319871D01*
X104517670Y-86308028D01*
X104519858Y-86308283D01*
X104522026Y-86307874D01*
X104581809Y-86315524D01*
X104641661Y-86322519D01*
X104644706Y-86323572D01*
X104645851Y-86323719D01*
X104647821Y-86324650D01*
X104686602Y-86338066D01*
X104723368Y-86353295D01*
X104989334Y-86424560D01*
X105262326Y-86460500D01*
X105262332Y-86460500D01*
X105537668Y-86460500D01*
X105537674Y-86460500D01*
X105810666Y-86424560D01*
X106076632Y-86353295D01*
X106331021Y-86247923D01*
X106569479Y-86110249D01*
X106607818Y-86080831D01*
X106787915Y-85942638D01*
X106787915Y-85942637D01*
X106787928Y-85942628D01*
X106982628Y-85747928D01*
X107150249Y-85529479D01*
X107287923Y-85291021D01*
X107393295Y-85036632D01*
X107464560Y-84770666D01*
X107500500Y-84497674D01*
X107500500Y-84222326D01*
X107464560Y-83949334D01*
X107393295Y-83683368D01*
X107287923Y-83428979D01*
X107150249Y-83190521D01*
X107150245Y-83190516D01*
X107150243Y-83190512D01*
X106982638Y-82972084D01*
X106982630Y-82972075D01*
X106982628Y-82972072D01*
X106787928Y-82777372D01*
X106787923Y-82777368D01*
X106787915Y-82777361D01*
X106569487Y-82609756D01*
X106569480Y-82609752D01*
X106569481Y-82609752D01*
X106569479Y-82609751D01*
X106331021Y-82472077D01*
X106076632Y-82366705D01*
X105810666Y-82295440D01*
X105810665Y-82295439D01*
X105810662Y-82295439D01*
X105708364Y-82281971D01*
X105537674Y-82259500D01*
X105318175Y-82259500D01*
X105194877Y-82239972D01*
X105083649Y-82183298D01*
X104995377Y-82095026D01*
X104938703Y-81983798D01*
X104919175Y-81860500D01*
X104938703Y-81737202D01*
X104995377Y-81625974D01*
X105057382Y-81558527D01*
X105074133Y-81544061D01*
X105145446Y-81482472D01*
X105151172Y-81477527D01*
X105257250Y-81411717D01*
X105378474Y-81381908D01*
X105411965Y-81380500D01*
X105537668Y-81380500D01*
X105537674Y-81380500D01*
X105810666Y-81344560D01*
X106076632Y-81273295D01*
X106331021Y-81167923D01*
X106569479Y-81030249D01*
X106787928Y-80862628D01*
X106982628Y-80667928D01*
X107068910Y-80555483D01*
X107150243Y-80449487D01*
X107150243Y-80449486D01*
X107150249Y-80449479D01*
X107287923Y-80211021D01*
X107393295Y-79956632D01*
X107464560Y-79690666D01*
X107500500Y-79417674D01*
X107500500Y-79142326D01*
X107464560Y-78869334D01*
X107393295Y-78603368D01*
X107287923Y-78348979D01*
X107150249Y-78110521D01*
X107150245Y-78110516D01*
X107150243Y-78110512D01*
X106982638Y-77892084D01*
X106982630Y-77892075D01*
X106982628Y-77892072D01*
X106787928Y-77697372D01*
X106787923Y-77697368D01*
X106787915Y-77697361D01*
X106569487Y-77529756D01*
X106569480Y-77529752D01*
X106569481Y-77529752D01*
X106569479Y-77529751D01*
X106331021Y-77392077D01*
X106076632Y-77286705D01*
X105810666Y-77215440D01*
X105810665Y-77215439D01*
X105810662Y-77215439D01*
X105708364Y-77201971D01*
X105537674Y-77179500D01*
X105262326Y-77179500D01*
X105107744Y-77199850D01*
X104989337Y-77215439D01*
X104723368Y-77286705D01*
X104468979Y-77392077D01*
X104468976Y-77392078D01*
X104230519Y-77529752D01*
X104230512Y-77529756D01*
X104012084Y-77697361D01*
X104012075Y-77697369D01*
X103817369Y-77892075D01*
X103817361Y-77892084D01*
X103649756Y-78110512D01*
X103649752Y-78110519D01*
X103512078Y-78348976D01*
X103512077Y-78348979D01*
X103406705Y-78603368D01*
X103335438Y-78869341D01*
X103335438Y-78869343D01*
X103323914Y-78956873D01*
X103288458Y-79076567D01*
X103217751Y-79179446D01*
X103189122Y-79206763D01*
X100554092Y-81482472D01*
X100448014Y-81548283D01*
X100326790Y-81578092D01*
X100293298Y-81579500D01*
X96078092Y-81579500D01*
X95041908Y-81579500D01*
X94852052Y-81609569D01*
X94808625Y-81616448D01*
X94584008Y-81689431D01*
X94373566Y-81796657D01*
X94373562Y-81796660D01*
X94182490Y-81935482D01*
X94015482Y-82102490D01*
X93876660Y-82293562D01*
X93876657Y-82293566D01*
X93769431Y-82504008D01*
X93696448Y-82728625D01*
X93696447Y-82728632D01*
X93659500Y-82961908D01*
X93659500Y-83198092D01*
X93696068Y-83428976D01*
X93696448Y-83431374D01*
X93769431Y-83655991D01*
X93876657Y-83866433D01*
X93876660Y-83866437D01*
X94015482Y-84057509D01*
X94025837Y-84067864D01*
X94099213Y-84168858D01*
X94137789Y-84287583D01*
X94137789Y-84412417D01*
X94099213Y-84531142D01*
X94025837Y-84632136D01*
X94015482Y-84642490D01*
X93876660Y-84833562D01*
X93876657Y-84833566D01*
X93769431Y-85044008D01*
X93696448Y-85268625D01*
X93696447Y-85268632D01*
X93659500Y-85501908D01*
X93659500Y-85738092D01*
X93661058Y-85747928D01*
X93696448Y-85971374D01*
X93769431Y-86195991D01*
X93838797Y-86332128D01*
X93876657Y-86406433D01*
X93889827Y-86424560D01*
X94015482Y-86597509D01*
X94025837Y-86607864D01*
X94099213Y-86708858D01*
X94137789Y-86827583D01*
X94137789Y-86952417D01*
X94099213Y-87071142D01*
X94025837Y-87172136D01*
X94015482Y-87182490D01*
X93876660Y-87373562D01*
X93876657Y-87373566D01*
X93769431Y-87584008D01*
X93696448Y-87808625D01*
X93693211Y-87829061D01*
X93659500Y-88041908D01*
X93659500Y-88278092D01*
X93677930Y-88394453D01*
X93696448Y-88511374D01*
X93769431Y-88735991D01*
X93876657Y-88946433D01*
X93876660Y-88946437D01*
X94015482Y-89137509D01*
X94025837Y-89147864D01*
X94099213Y-89248858D01*
X94137789Y-89367583D01*
X94137789Y-89492417D01*
X94099213Y-89611142D01*
X94025837Y-89712136D01*
X94015482Y-89722490D01*
X93876660Y-89913562D01*
X93876657Y-89913566D01*
X93769431Y-90124008D01*
X93696448Y-90348625D01*
X93696447Y-90348632D01*
X93659500Y-90581908D01*
X93659500Y-90818092D01*
X93688128Y-90998845D01*
X93696448Y-91051374D01*
X93769431Y-91275991D01*
X93862861Y-91459357D01*
X93901438Y-91578082D01*
X93901438Y-91702917D01*
X93862862Y-91821642D01*
X93789486Y-91922635D01*
X93688493Y-91996011D01*
X93569768Y-92034588D01*
X93507350Y-92039500D01*
X92699500Y-92039500D01*
X92576202Y-92019972D01*
X92464974Y-91963298D01*
X92376702Y-91875026D01*
X92320028Y-91763798D01*
X92300500Y-91640500D01*
X92300500Y-76307171D01*
X92320028Y-76183873D01*
X92376702Y-76072645D01*
X92464974Y-75984373D01*
X92576202Y-75927699D01*
X92699500Y-75908171D01*
X92822798Y-75927699D01*
X92934026Y-75984373D01*
X93022298Y-76072645D01*
X93068126Y-76154478D01*
X93136776Y-76320212D01*
X93136777Y-76320213D01*
X93136779Y-76320218D01*
X93258064Y-76530290D01*
X93401071Y-76716660D01*
X93405735Y-76722738D01*
X93577262Y-76894265D01*
X93646693Y-76947541D01*
X93732623Y-77038092D01*
X93786366Y-77150766D01*
X93802660Y-77274533D01*
X93779911Y-77397277D01*
X93772431Y-77416765D01*
X93769432Y-77424005D01*
X93696448Y-77648625D01*
X93659500Y-77881910D01*
X93659500Y-78118089D01*
X93696448Y-78351374D01*
X93769431Y-78575991D01*
X93797526Y-78631130D01*
X93876657Y-78786433D01*
X94015483Y-78977510D01*
X94182490Y-79144517D01*
X94373567Y-79283343D01*
X94541794Y-79369059D01*
X94584008Y-79390568D01*
X94808625Y-79463551D01*
X94808626Y-79463551D01*
X94808632Y-79463553D01*
X95041908Y-79500500D01*
X95041911Y-79500500D01*
X96078089Y-79500500D01*
X96078092Y-79500500D01*
X96311368Y-79463553D01*
X96535992Y-79390568D01*
X96746433Y-79283343D01*
X96755570Y-79276704D01*
X96866797Y-79220030D01*
X96990094Y-79200500D01*
X97069901Y-79200500D01*
X97193199Y-79220028D01*
X97304425Y-79276701D01*
X97313567Y-79283343D01*
X97481794Y-79369059D01*
X97524008Y-79390568D01*
X97748625Y-79463551D01*
X97748626Y-79463551D01*
X97748632Y-79463553D01*
X97981908Y-79500500D01*
X97981911Y-79500500D01*
X98818089Y-79500500D01*
X98818092Y-79500500D01*
X99051368Y-79463553D01*
X99275992Y-79390568D01*
X99486433Y-79283343D01*
X99677510Y-79144517D01*
X99844517Y-78977510D01*
X99983343Y-78786433D01*
X100090568Y-78575992D01*
X100163553Y-78351368D01*
X100200500Y-78118092D01*
X100200500Y-77881908D01*
X100163553Y-77648632D01*
X100124926Y-77529752D01*
X100090568Y-77424008D01*
X100090566Y-77424005D01*
X99983343Y-77213567D01*
X99844517Y-77022490D01*
X99677510Y-76855483D01*
X99663011Y-76844949D01*
X99530183Y-76748443D01*
X99486433Y-76716657D01*
X99445619Y-76695861D01*
X99275991Y-76609431D01*
X99051374Y-76536448D01*
X99051368Y-76536447D01*
X98818092Y-76499500D01*
X97981908Y-76499500D01*
X97792052Y-76529569D01*
X97748625Y-76536448D01*
X97524008Y-76609431D01*
X97313566Y-76716657D01*
X97313565Y-76716658D01*
X97307858Y-76720804D01*
X97305198Y-76722738D01*
X97304431Y-76723295D01*
X97193203Y-76779970D01*
X97069906Y-76799500D01*
X96990099Y-76799500D01*
X96866801Y-76779972D01*
X96755574Y-76723298D01*
X96746433Y-76716657D01*
X96705613Y-76695858D01*
X96604623Y-76622485D01*
X96531246Y-76521492D01*
X96492670Y-76402767D01*
X96492669Y-76277933D01*
X96518127Y-76187662D01*
X96556054Y-76096100D01*
X96556300Y-76095185D01*
X96618837Y-75861791D01*
X96618838Y-75861789D01*
X96650500Y-75621288D01*
X96650500Y-72536886D01*
X96660233Y-72475435D01*
X105299500Y-72475435D01*
X105299500Y-72724565D01*
X105327095Y-72934174D01*
X105332018Y-72971566D01*
X105332019Y-72971571D01*
X105396492Y-73212190D01*
X105396496Y-73212200D01*
X105396498Y-73212207D01*
X105491836Y-73442373D01*
X105491837Y-73442374D01*
X105491837Y-73442375D01*
X105616399Y-73658124D01*
X105616404Y-73658132D01*
X105725647Y-73800500D01*
X105768062Y-73855776D01*
X105944224Y-74031938D01*
X105944228Y-74031941D01*
X105944229Y-74031942D01*
X106141867Y-74183595D01*
X106141871Y-74183597D01*
X106141873Y-74183599D01*
X106357627Y-74308164D01*
X106587793Y-74403502D01*
X106587803Y-74403504D01*
X106587809Y-74403507D01*
X106792686Y-74458403D01*
X106828435Y-74467982D01*
X107075435Y-74500500D01*
X107075440Y-74500500D01*
X107324560Y-74500500D01*
X107324565Y-74500500D01*
X107571565Y-74467982D01*
X107684328Y-74437767D01*
X107812190Y-74403507D01*
X107812193Y-74403505D01*
X107812207Y-74403502D01*
X108042373Y-74308164D01*
X108258127Y-74183599D01*
X108455776Y-74031938D01*
X108631938Y-73855776D01*
X108783599Y-73658127D01*
X108908164Y-73442373D01*
X109003502Y-73212207D01*
X109008651Y-73192993D01*
X109048869Y-73042896D01*
X109067982Y-72971565D01*
X109100500Y-72724565D01*
X109100500Y-72475435D01*
X109067982Y-72228435D01*
X109037885Y-72116110D01*
X109003507Y-71987809D01*
X109003504Y-71987803D01*
X109003502Y-71987793D01*
X108908164Y-71757627D01*
X108783599Y-71541873D01*
X108783597Y-71541871D01*
X108783595Y-71541867D01*
X108631942Y-71344229D01*
X108631941Y-71344228D01*
X108631938Y-71344224D01*
X108455776Y-71168062D01*
X108455771Y-71168058D01*
X108455770Y-71168057D01*
X108258132Y-71016404D01*
X108258124Y-71016399D01*
X108158301Y-70958767D01*
X108042373Y-70891836D01*
X107812207Y-70796498D01*
X107812200Y-70796496D01*
X107812190Y-70796492D01*
X107571571Y-70732019D01*
X107571566Y-70732018D01*
X107530398Y-70726598D01*
X107324565Y-70699500D01*
X107075435Y-70699500D01*
X106899006Y-70722727D01*
X106828433Y-70732018D01*
X106828428Y-70732019D01*
X106587809Y-70796492D01*
X106587799Y-70796496D01*
X106587796Y-70796497D01*
X106587793Y-70796498D01*
X106357627Y-70891836D01*
X106357625Y-70891837D01*
X106357624Y-70891837D01*
X106141875Y-71016399D01*
X106141867Y-71016404D01*
X105944229Y-71168057D01*
X105768057Y-71344229D01*
X105616404Y-71541867D01*
X105616399Y-71541875D01*
X105491837Y-71757624D01*
X105491837Y-71757625D01*
X105491836Y-71757627D01*
X105406803Y-71962916D01*
X105396496Y-71987799D01*
X105396492Y-71987809D01*
X105332019Y-72228428D01*
X105332018Y-72228433D01*
X105330371Y-72240945D01*
X105299500Y-72475435D01*
X96660233Y-72475435D01*
X96670028Y-72413588D01*
X96726702Y-72302360D01*
X96814974Y-72214088D01*
X96926202Y-72157414D01*
X96939726Y-72153283D01*
X96998134Y-72136571D01*
X97171282Y-72046126D01*
X97256659Y-71976510D01*
X99930596Y-71976510D01*
X100002164Y-72017830D01*
X100002181Y-72017838D01*
X100220172Y-72108132D01*
X100448081Y-72169200D01*
X100682022Y-72200000D01*
X100917978Y-72200000D01*
X101151918Y-72169200D01*
X101379833Y-72108130D01*
X101414561Y-72093746D01*
X101414564Y-72093745D01*
X101597827Y-72017835D01*
X101597839Y-72017828D01*
X101669402Y-71976510D01*
X101669402Y-71976509D01*
X100800000Y-71107106D01*
X99930596Y-71976510D01*
X97256659Y-71976510D01*
X97322678Y-71922678D01*
X97446126Y-71771282D01*
X97536571Y-71598134D01*
X97590310Y-71410325D01*
X97600500Y-71295710D01*
X97600500Y-70282022D01*
X99000000Y-70282022D01*
X99000000Y-70517977D01*
X99030799Y-70751918D01*
X99091867Y-70979827D01*
X99182162Y-71197821D01*
X99182168Y-71197833D01*
X99223488Y-71269402D01*
X99223489Y-71269402D01*
X100092892Y-70400000D01*
X100027066Y-70334174D01*
X100300000Y-70334174D01*
X100300000Y-70465826D01*
X100334075Y-70592993D01*
X100399901Y-70707007D01*
X100492993Y-70800099D01*
X100607007Y-70865925D01*
X100734174Y-70900000D01*
X100865826Y-70900000D01*
X100992993Y-70865925D01*
X101107007Y-70800099D01*
X101200099Y-70707007D01*
X101265925Y-70592993D01*
X101300000Y-70465826D01*
X101300000Y-70400000D01*
X101507106Y-70400000D01*
X102376509Y-71269402D01*
X102376510Y-71269402D01*
X102417828Y-71197839D01*
X102417834Y-71197827D01*
X102508131Y-70979830D01*
X102569200Y-70751918D01*
X102600000Y-70517977D01*
X102600000Y-70282022D01*
X102569200Y-70048081D01*
X102508132Y-69820172D01*
X102417838Y-69602181D01*
X102417830Y-69602164D01*
X102376510Y-69530596D01*
X101507106Y-70400000D01*
X101300000Y-70400000D01*
X101300000Y-70334174D01*
X101265925Y-70207007D01*
X101200099Y-70092993D01*
X101107007Y-69999901D01*
X100992993Y-69934075D01*
X100865826Y-69900000D01*
X100734174Y-69900000D01*
X100607007Y-69934075D01*
X100492993Y-69999901D01*
X100399901Y-70092993D01*
X100334075Y-70207007D01*
X100300000Y-70334174D01*
X100027066Y-70334174D01*
X99223488Y-69530596D01*
X99182165Y-69602170D01*
X99182160Y-69602180D01*
X99091869Y-69820166D01*
X99030799Y-70048081D01*
X99000000Y-70282022D01*
X97600500Y-70282022D01*
X97600500Y-69504290D01*
X97590310Y-69389675D01*
X97536571Y-69201866D01*
X97446126Y-69028718D01*
X97322678Y-68877322D01*
X97256656Y-68823488D01*
X99930596Y-68823488D01*
X100800000Y-69692892D01*
X101669402Y-68823489D01*
X101669402Y-68823488D01*
X101597833Y-68782168D01*
X101597821Y-68782162D01*
X101379827Y-68691867D01*
X101151918Y-68630799D01*
X100917978Y-68600000D01*
X100682022Y-68600000D01*
X100448081Y-68630799D01*
X100220166Y-68691869D01*
X100002180Y-68782160D01*
X100002170Y-68782165D01*
X99930596Y-68823488D01*
X97256656Y-68823488D01*
X97171282Y-68753874D01*
X97171281Y-68753873D01*
X96998128Y-68663426D01*
X96998129Y-68663426D01*
X96939733Y-68646717D01*
X96826565Y-68594023D01*
X96735220Y-68508936D01*
X96674638Y-68399787D01*
X96650751Y-68277259D01*
X96650500Y-68263113D01*
X96650500Y-62678717D01*
X96650500Y-62678712D01*
X96618838Y-62438211D01*
X96556054Y-62203900D01*
X96463224Y-61979788D01*
X96341936Y-61769711D01*
X96341935Y-61769709D01*
X96194269Y-61577267D01*
X96194268Y-61577266D01*
X96194265Y-61577262D01*
X96148635Y-61531632D01*
X96075262Y-61430642D01*
X96036686Y-61311917D01*
X96036686Y-61187083D01*
X96075262Y-61068358D01*
X96148638Y-60967364D01*
X96249632Y-60893988D01*
X96368357Y-60855412D01*
X96430774Y-60850500D01*
X99620059Y-60850500D01*
X99743357Y-60870028D01*
X99776646Y-60883562D01*
X99776911Y-60882924D01*
X99788977Y-60887922D01*
X99788979Y-60887923D01*
X100043368Y-60993295D01*
X100309334Y-61064560D01*
X100582326Y-61100500D01*
X100582332Y-61100500D01*
X100857668Y-61100500D01*
X100857674Y-61100500D01*
X101130666Y-61064560D01*
X101396632Y-60993295D01*
X101651021Y-60887923D01*
X101889479Y-60750249D01*
X102026616Y-60645021D01*
X102107915Y-60582638D01*
X102107915Y-60582637D01*
X102107928Y-60582628D01*
X102302628Y-60387928D01*
X102434652Y-60215870D01*
X102470243Y-60169487D01*
X102470243Y-60169486D01*
X102470249Y-60169479D01*
X102607923Y-59931021D01*
X102713295Y-59676632D01*
X102784560Y-59410666D01*
X102820500Y-59137674D01*
X102820500Y-58862326D01*
X102784560Y-58589334D01*
X102713295Y-58323368D01*
X102607923Y-58068979D01*
X102582332Y-58024655D01*
X102520728Y-57917953D01*
X102520723Y-57917945D01*
X102470249Y-57830521D01*
X102470245Y-57830516D01*
X102470243Y-57830512D01*
X102390256Y-57726270D01*
X103700000Y-57726270D01*
X103700000Y-60273709D01*
X103700002Y-60273738D01*
X103706104Y-60351284D01*
X103706106Y-60351294D01*
X103713605Y-60379285D01*
X105002338Y-59090551D01*
X105030743Y-59233351D01*
X105091049Y-59378942D01*
X105178599Y-59509970D01*
X105290030Y-59621401D01*
X105421058Y-59708951D01*
X105566649Y-59769257D01*
X105709445Y-59797660D01*
X104420714Y-61086392D01*
X104448714Y-61093895D01*
X104526275Y-61099999D01*
X107073709Y-61099999D01*
X107073740Y-61099997D01*
X107151285Y-61093895D01*
X107179284Y-61086392D01*
X105890552Y-59797660D01*
X106033351Y-59769257D01*
X106178942Y-59708951D01*
X106309970Y-59621401D01*
X106421401Y-59509970D01*
X106508951Y-59378942D01*
X106569257Y-59233351D01*
X106597660Y-59090552D01*
X107886392Y-60379284D01*
X107893895Y-60351285D01*
X107899999Y-60273732D01*
X107899999Y-57726290D01*
X107899997Y-57726261D01*
X107893895Y-57648715D01*
X107893894Y-57648709D01*
X107886392Y-57620714D01*
X106597660Y-58909445D01*
X106569257Y-58766649D01*
X106508951Y-58621058D01*
X106421401Y-58490030D01*
X106309970Y-58378599D01*
X106178942Y-58291049D01*
X106033351Y-58230743D01*
X105890551Y-58202338D01*
X107179285Y-56913605D01*
X107151291Y-56906105D01*
X107151288Y-56906104D01*
X107073724Y-56900000D01*
X104526290Y-56900000D01*
X104526263Y-56900002D01*
X104448707Y-56906105D01*
X104420713Y-56913605D01*
X105709447Y-58202339D01*
X105566649Y-58230743D01*
X105421058Y-58291049D01*
X105290030Y-58378599D01*
X105178599Y-58490030D01*
X105091049Y-58621058D01*
X105030743Y-58766649D01*
X105002339Y-58909447D01*
X103713605Y-57620713D01*
X103706106Y-57648705D01*
X103706104Y-57648716D01*
X103700000Y-57726270D01*
X102390256Y-57726270D01*
X102302638Y-57612084D01*
X102302630Y-57612075D01*
X102302628Y-57612072D01*
X102107928Y-57417372D01*
X102107923Y-57417368D01*
X102107922Y-57417367D01*
X102019340Y-57349396D01*
X101889479Y-57249751D01*
X101651023Y-57112078D01*
X101651022Y-57112077D01*
X101651021Y-57112077D01*
X101396632Y-57006705D01*
X101130666Y-56935440D01*
X101130665Y-56935439D01*
X101130662Y-56935439D01*
X101028364Y-56921971D01*
X100857674Y-56899500D01*
X100582326Y-56899500D01*
X100427744Y-56919850D01*
X100309337Y-56935439D01*
X100257376Y-56949362D01*
X100043368Y-57006705D01*
X99788979Y-57112077D01*
X99788977Y-57112077D01*
X99776911Y-57117076D01*
X99775945Y-57114744D01*
X99677314Y-57145371D01*
X99620059Y-57149500D01*
X96002753Y-57149500D01*
X95879455Y-57129972D01*
X95803255Y-57096045D01*
X95675345Y-57022196D01*
X95595798Y-56989247D01*
X95408845Y-56911809D01*
X95130213Y-56837150D01*
X95023044Y-56823041D01*
X94844228Y-56799500D01*
X94555772Y-56799500D01*
X94393831Y-56820819D01*
X94269786Y-56837150D01*
X93991154Y-56911809D01*
X93724661Y-57022193D01*
X93724656Y-57022195D01*
X93474839Y-57166427D01*
X93246001Y-57342021D01*
X93042021Y-57546001D01*
X92866427Y-57774839D01*
X92722195Y-58024656D01*
X92722193Y-58024661D01*
X92611809Y-58291154D01*
X92537150Y-58569786D01*
X92524494Y-58665925D01*
X92499500Y-58855772D01*
X92499500Y-59144228D01*
X92516723Y-59275049D01*
X92534576Y-59410662D01*
X92537151Y-59430217D01*
X92591202Y-59631938D01*
X92611809Y-59708845D01*
X92703836Y-59931021D01*
X92722196Y-59975345D01*
X92866425Y-60225156D01*
X92866427Y-60225158D01*
X92929690Y-60307605D01*
X92989255Y-60417312D01*
X93012004Y-60540056D01*
X92995710Y-60663823D01*
X92941967Y-60776497D01*
X92856036Y-60867049D01*
X92746329Y-60926614D01*
X92623585Y-60949363D01*
X92613141Y-60949500D01*
X84587697Y-60949500D01*
X84464399Y-60929972D01*
X84353171Y-60873298D01*
X84264899Y-60785026D01*
X84208225Y-60673798D01*
X84188697Y-60550500D01*
X84196942Y-60483168D01*
X84194958Y-60482857D01*
X84197682Y-60465504D01*
X84198462Y-60454004D01*
X84200500Y-60423954D01*
X84200500Y-57576046D01*
X84197683Y-57534505D01*
X84153037Y-57354979D01*
X84070842Y-57189247D01*
X84070840Y-57189245D01*
X84070839Y-57189242D01*
X83954947Y-57045068D01*
X83954944Y-57045065D01*
X83954940Y-57045060D01*
X83954934Y-57045055D01*
X83954931Y-57045052D01*
X83810757Y-56929160D01*
X83775772Y-56911809D01*
X83645021Y-56846963D01*
X83550626Y-56823488D01*
X83465496Y-56802317D01*
X83423959Y-56799500D01*
X83423954Y-56799500D01*
X80576046Y-56799500D01*
X80576040Y-56799500D01*
X80534503Y-56802317D01*
X80354979Y-56846963D01*
X80189242Y-56929160D01*
X80045068Y-57045052D01*
X80045052Y-57045068D01*
X79929160Y-57189242D01*
X79846963Y-57354979D01*
X79802317Y-57534503D01*
X79799500Y-57576040D01*
X79799500Y-60423959D01*
X79802317Y-60465504D01*
X79805042Y-60482857D01*
X79802040Y-60483328D01*
X79810313Y-60578585D01*
X79782155Y-60700202D01*
X79717792Y-60807166D01*
X79623526Y-60889005D01*
X79508585Y-60937709D01*
X79412303Y-60949500D01*
X61630506Y-60949500D01*
X61507208Y-60929972D01*
X61395980Y-60873298D01*
X61307708Y-60785026D01*
X61251034Y-60673798D01*
X61231506Y-60550500D01*
X61251034Y-60427202D01*
X61307708Y-60315974D01*
X61395980Y-60227702D01*
X61507208Y-60171028D01*
X61527237Y-60165096D01*
X61739830Y-60108131D01*
X61957827Y-60017834D01*
X61957839Y-60017828D01*
X62029402Y-59976510D01*
X62029402Y-59976509D01*
X61160000Y-59107106D01*
X60290596Y-59976510D01*
X60362164Y-60017830D01*
X60362181Y-60017838D01*
X60580172Y-60108132D01*
X60792763Y-60165096D01*
X60906805Y-60215870D01*
X60999575Y-60299401D01*
X61061993Y-60407511D01*
X61087947Y-60529618D01*
X61074898Y-60653769D01*
X61024124Y-60767811D01*
X60940593Y-60860581D01*
X60832483Y-60922999D01*
X60710376Y-60948953D01*
X60689494Y-60949500D01*
X53249500Y-60949500D01*
X53126202Y-60929972D01*
X53014974Y-60873298D01*
X52926702Y-60785026D01*
X52870028Y-60673798D01*
X52850500Y-60550500D01*
X52850500Y-58297177D01*
X52850500Y-58282022D01*
X59360000Y-58282022D01*
X59360000Y-58517977D01*
X59390799Y-58751918D01*
X59451867Y-58979827D01*
X59542162Y-59197821D01*
X59542168Y-59197833D01*
X59583488Y-59269402D01*
X59583489Y-59269402D01*
X60452892Y-58400000D01*
X60387066Y-58334174D01*
X60660000Y-58334174D01*
X60660000Y-58465826D01*
X60694075Y-58592993D01*
X60759901Y-58707007D01*
X60852993Y-58800099D01*
X60967007Y-58865925D01*
X61094174Y-58900000D01*
X61225826Y-58900000D01*
X61352993Y-58865925D01*
X61467007Y-58800099D01*
X61560099Y-58707007D01*
X61625925Y-58592993D01*
X61660000Y-58465826D01*
X61660000Y-58400000D01*
X61867106Y-58400000D01*
X62736509Y-59269402D01*
X62736510Y-59269402D01*
X62777828Y-59197839D01*
X62777834Y-59197827D01*
X62868131Y-58979830D01*
X62929200Y-58751918D01*
X62960000Y-58517977D01*
X62960000Y-58282022D01*
X62929200Y-58048081D01*
X62868132Y-57820172D01*
X62777838Y-57602181D01*
X62777830Y-57602164D01*
X62736510Y-57530596D01*
X61867106Y-58400000D01*
X61660000Y-58400000D01*
X61660000Y-58334174D01*
X61625925Y-58207007D01*
X61560099Y-58092993D01*
X61467007Y-57999901D01*
X61352993Y-57934075D01*
X61225826Y-57900000D01*
X61094174Y-57900000D01*
X60967007Y-57934075D01*
X60852993Y-57999901D01*
X60759901Y-58092993D01*
X60694075Y-58207007D01*
X60660000Y-58334174D01*
X60387066Y-58334174D01*
X59583488Y-57530596D01*
X59542165Y-57602170D01*
X59542160Y-57602180D01*
X59451869Y-57820166D01*
X59390799Y-58048081D01*
X59360000Y-58282022D01*
X52850500Y-58282022D01*
X52850500Y-58278712D01*
X52818838Y-58038211D01*
X52807861Y-57997246D01*
X52804471Y-57973397D01*
X52804838Y-57950203D01*
X52800499Y-57917239D01*
X52800499Y-57376056D01*
X52800499Y-57376048D01*
X52797683Y-57334506D01*
X52753037Y-57154979D01*
X52733082Y-57114744D01*
X52670841Y-56989246D01*
X52554945Y-56845066D01*
X52554944Y-56845065D01*
X52554940Y-56845060D01*
X52545100Y-56837150D01*
X52528104Y-56823488D01*
X60290596Y-56823488D01*
X61160000Y-57692892D01*
X62029402Y-56823489D01*
X62029402Y-56823488D01*
X61957833Y-56782168D01*
X61957821Y-56782162D01*
X61739827Y-56691867D01*
X61511918Y-56630799D01*
X61277978Y-56600000D01*
X61042022Y-56600000D01*
X60808081Y-56630799D01*
X60580166Y-56691869D01*
X60362180Y-56782160D01*
X60362170Y-56782165D01*
X60290596Y-56823488D01*
X52528104Y-56823488D01*
X52410754Y-56729159D01*
X52245021Y-56646963D01*
X52065496Y-56602317D01*
X52023958Y-56599500D01*
X52023953Y-56599500D01*
X51482756Y-56599500D01*
X51379486Y-56585904D01*
X51361786Y-56581161D01*
X51361789Y-56581161D01*
X51216753Y-56562067D01*
X51121288Y-56549500D01*
X50878712Y-56549500D01*
X50745100Y-56567090D01*
X50638207Y-56581162D01*
X50620508Y-56585905D01*
X50517243Y-56599500D01*
X49976041Y-56599500D01*
X49934514Y-56602315D01*
X49934504Y-56602317D01*
X49754979Y-56646963D01*
X49589245Y-56729159D01*
X49445066Y-56845054D01*
X49445054Y-56845066D01*
X49329159Y-56989245D01*
X49246962Y-57154980D01*
X49205170Y-57323027D01*
X49156462Y-57437967D01*
X49074619Y-57532230D01*
X48967654Y-57596588D01*
X48846035Y-57624742D01*
X48721669Y-57613936D01*
X48606729Y-57565228D01*
X48512466Y-57483385D01*
X48508778Y-57477256D01*
X48477386Y-57469720D01*
X47747107Y-58199999D01*
X48477387Y-58930279D01*
X48657358Y-58887073D01*
X48781808Y-58877279D01*
X48903193Y-58906422D01*
X49009632Y-58971649D01*
X49090705Y-59066574D01*
X49138476Y-59181907D01*
X49149500Y-59275049D01*
X49149500Y-60550500D01*
X49129972Y-60673798D01*
X49073298Y-60785026D01*
X48985026Y-60873298D01*
X48873798Y-60929972D01*
X48750500Y-60949500D01*
X46249500Y-60949500D01*
X46126202Y-60929972D01*
X46014974Y-60873298D01*
X45926702Y-60785026D01*
X45870028Y-60673798D01*
X45850500Y-60550500D01*
X45850500Y-60228517D01*
X45870028Y-60105219D01*
X45926702Y-59993991D01*
X46014974Y-59905719D01*
X46126202Y-59849045D01*
X46249500Y-59829517D01*
X46372798Y-59849045D01*
X46430644Y-59873006D01*
X46464202Y-59890105D01*
X46688742Y-59963063D01*
X46921950Y-60000000D01*
X47158050Y-60000000D01*
X47391257Y-59963063D01*
X47615798Y-59890104D01*
X47826171Y-59782914D01*
X47878087Y-59745195D01*
X47878087Y-59745194D01*
X47040000Y-58907106D01*
X47040000Y-58907107D01*
X46267067Y-58134174D01*
X46540000Y-58134174D01*
X46540000Y-58265826D01*
X46574075Y-58392993D01*
X46639901Y-58507007D01*
X46732993Y-58600099D01*
X46847007Y-58665925D01*
X46974174Y-58700000D01*
X47105826Y-58700000D01*
X47232993Y-58665925D01*
X47347007Y-58600099D01*
X47440099Y-58507007D01*
X47505925Y-58392993D01*
X47540000Y-58265826D01*
X47540000Y-58134174D01*
X47505925Y-58007007D01*
X47440099Y-57892993D01*
X47347007Y-57799901D01*
X47232993Y-57734075D01*
X47105826Y-57700000D01*
X46974174Y-57700000D01*
X46847007Y-57734075D01*
X46732993Y-57799901D01*
X46639901Y-57892993D01*
X46574075Y-58007007D01*
X46540000Y-58134174D01*
X46267067Y-58134174D01*
X46108298Y-57975405D01*
X46034922Y-57874411D01*
X45996347Y-57755691D01*
X45963553Y-57548632D01*
X45932197Y-57452129D01*
X45912669Y-57328836D01*
X45932197Y-57205538D01*
X45988870Y-57094310D01*
X46077141Y-57006038D01*
X46188369Y-56949363D01*
X46311667Y-56929834D01*
X46434965Y-56949362D01*
X46546193Y-57006035D01*
X46593804Y-57046698D01*
X47039999Y-57492893D01*
X47878088Y-56654804D01*
X47878088Y-56654803D01*
X47826175Y-56617087D01*
X47826172Y-56617086D01*
X47615798Y-56509895D01*
X47391257Y-56436936D01*
X47158050Y-56400000D01*
X46921950Y-56400000D01*
X46688742Y-56436936D01*
X46464201Y-56509895D01*
X46253831Y-56617083D01*
X46182764Y-56668714D01*
X46180476Y-56678247D01*
X46115248Y-56784685D01*
X46020322Y-56865758D01*
X45904989Y-56913528D01*
X45780539Y-56923321D01*
X45659154Y-56894177D01*
X45552716Y-56828949D01*
X45529714Y-56807687D01*
X45477509Y-56755482D01*
X45335246Y-56652122D01*
X45286433Y-56616657D01*
X45253742Y-56600000D01*
X45075991Y-56509431D01*
X44851374Y-56436448D01*
X44851368Y-56436447D01*
X44618092Y-56399500D01*
X44381908Y-56399500D01*
X44192052Y-56429569D01*
X44148625Y-56436448D01*
X43924008Y-56509431D01*
X43713566Y-56616657D01*
X43713562Y-56616660D01*
X43522490Y-56755482D01*
X43355482Y-56922490D01*
X43216660Y-57113562D01*
X43216657Y-57113566D01*
X43109431Y-57324008D01*
X43036448Y-57548625D01*
X43036447Y-57548631D01*
X43036447Y-57548632D01*
X42999500Y-57781908D01*
X42999500Y-58618092D01*
X43030245Y-58812207D01*
X43036448Y-58851374D01*
X43109428Y-59075981D01*
X43109432Y-59075992D01*
X43109434Y-59075997D01*
X43115430Y-59090471D01*
X43113196Y-59091396D01*
X43144585Y-59187985D01*
X43149500Y-59250420D01*
X43149500Y-61384783D01*
X43129972Y-61508081D01*
X43073298Y-61619309D01*
X43067049Y-61627678D01*
X42958064Y-61769710D01*
X42836779Y-61979781D01*
X42743943Y-62203906D01*
X42681162Y-62438208D01*
X42681161Y-62438210D01*
X42661143Y-62590268D01*
X42649500Y-62678712D01*
X42649500Y-62921288D01*
X42663472Y-63027420D01*
X42681161Y-63161789D01*
X42681162Y-63161791D01*
X42743943Y-63396093D01*
X42743946Y-63396100D01*
X42836776Y-63620212D01*
X42836777Y-63620215D01*
X42836779Y-63620218D01*
X42958064Y-63830290D01*
X43105730Y-64022732D01*
X43105735Y-64022738D01*
X43277262Y-64194265D01*
X43277266Y-64194268D01*
X43277267Y-64194269D01*
X43469709Y-64341935D01*
X43469711Y-64341936D01*
X43679788Y-64463224D01*
X43903900Y-64556054D01*
X43903903Y-64556054D01*
X43903906Y-64556056D01*
X44060107Y-64597910D01*
X44138208Y-64618837D01*
X44138210Y-64618838D01*
X44178294Y-64624115D01*
X44378712Y-64650500D01*
X45400500Y-64650500D01*
X45523798Y-64670028D01*
X45635026Y-64726702D01*
X45723298Y-64814974D01*
X45779972Y-64926202D01*
X45799500Y-65049500D01*
X45799500Y-70199770D01*
X45779972Y-70323068D01*
X45723298Y-70434296D01*
X45631130Y-70561153D01*
X45516759Y-70785620D01*
X45438911Y-71025209D01*
X45438911Y-71025211D01*
X45438910Y-71025215D01*
X45399500Y-71274038D01*
X45399500Y-71525962D01*
X45438910Y-71774783D01*
X45438911Y-71774790D01*
X45505751Y-71980500D01*
X45516759Y-72014379D01*
X45631130Y-72238845D01*
X45779207Y-72442656D01*
X45957344Y-72620793D01*
X46161155Y-72768870D01*
X46385621Y-72883241D01*
X46625215Y-72961090D01*
X46874038Y-73000500D01*
X46874041Y-73000500D01*
X47125959Y-73000500D01*
X47125962Y-73000500D01*
X47374785Y-72961090D01*
X47614379Y-72883241D01*
X47838845Y-72768870D01*
X48042656Y-72620793D01*
X48220793Y-72442656D01*
X48368870Y-72238845D01*
X48483241Y-72014379D01*
X48561090Y-71774785D01*
X48593251Y-71571728D01*
X65418835Y-71571728D01*
X66133718Y-72286611D01*
X66143743Y-72289148D01*
X66861163Y-71571728D01*
X66754191Y-71517223D01*
X66754186Y-71517221D01*
X66514670Y-71439397D01*
X66265920Y-71400000D01*
X66014080Y-71400000D01*
X65765329Y-71439397D01*
X65525808Y-71517223D01*
X65418835Y-71571728D01*
X48593251Y-71571728D01*
X48600500Y-71525962D01*
X48600500Y-71274038D01*
X48561090Y-71025215D01*
X48513907Y-70880000D01*
X72312978Y-70880000D01*
X72336934Y-71031250D01*
X72409895Y-71255798D01*
X72517083Y-71466167D01*
X72655862Y-71657181D01*
X72822818Y-71824137D01*
X73013832Y-71962916D01*
X73224199Y-72070103D01*
X73299999Y-72094733D01*
X73300000Y-72094733D01*
X73300000Y-70880001D01*
X73299999Y-70880000D01*
X72312978Y-70880000D01*
X48513907Y-70880000D01*
X48483241Y-70785621D01*
X48368870Y-70561155D01*
X48259798Y-70411031D01*
X48246403Y-70385574D01*
X48235469Y-70353373D01*
X48220028Y-70323067D01*
X48215523Y-70294626D01*
X48206268Y-70267367D01*
X48205820Y-70233362D01*
X48200500Y-70199770D01*
X48200500Y-69879999D01*
X72312978Y-69879999D01*
X72312979Y-69880000D01*
X73299999Y-69880000D01*
X73300000Y-69879999D01*
X73300000Y-68665266D01*
X73299999Y-68665265D01*
X73224205Y-68689893D01*
X73224198Y-68689896D01*
X73013836Y-68797080D01*
X73013832Y-68797083D01*
X72822818Y-68935862D01*
X72655862Y-69102818D01*
X72517083Y-69293832D01*
X72409895Y-69504201D01*
X72336934Y-69728749D01*
X72312978Y-69879999D01*
X48200500Y-69879999D01*
X48200500Y-65049500D01*
X48220028Y-64926202D01*
X48276702Y-64814974D01*
X48364974Y-64726702D01*
X48476202Y-64670028D01*
X48599500Y-64650500D01*
X50878712Y-64650500D01*
X51121288Y-64650500D01*
X81878712Y-64650500D01*
X82121288Y-64650500D01*
X92550500Y-64650500D01*
X92673798Y-64670028D01*
X92785026Y-64726702D01*
X92873298Y-64814974D01*
X92929972Y-64926202D01*
X92949500Y-65049500D01*
X92949500Y-70558688D01*
X92929972Y-70681986D01*
X92873298Y-70793214D01*
X92785026Y-70881486D01*
X92673798Y-70938160D01*
X92550500Y-70957688D01*
X92427202Y-70938160D01*
X92389036Y-70922352D01*
X92388868Y-70922760D01*
X92374382Y-70916760D01*
X92134790Y-70838911D01*
X92134786Y-70838910D01*
X92134785Y-70838910D01*
X91885962Y-70799500D01*
X91634038Y-70799500D01*
X91385215Y-70838910D01*
X91385209Y-70838911D01*
X91145620Y-70916759D01*
X90921154Y-71031130D01*
X90717346Y-71179205D01*
X90539205Y-71357346D01*
X90391130Y-71561154D01*
X90276759Y-71785620D01*
X90198911Y-72025209D01*
X90198910Y-72025214D01*
X90198910Y-72025215D01*
X90159500Y-72274038D01*
X90159500Y-72525962D01*
X90190249Y-72720099D01*
X90198911Y-72774790D01*
X90250699Y-72934174D01*
X90276759Y-73014379D01*
X90391130Y-73238845D01*
X90539207Y-73442656D01*
X90614918Y-73518367D01*
X90688292Y-73619358D01*
X90726868Y-73738083D01*
X90726868Y-73862917D01*
X90688292Y-73981642D01*
X90614916Y-74082636D01*
X90513922Y-74156012D01*
X90395197Y-74194588D01*
X90332780Y-74199500D01*
X83027220Y-74199500D01*
X82903922Y-74179972D01*
X82792694Y-74123298D01*
X82704422Y-74035026D01*
X82647748Y-73923798D01*
X82628220Y-73800500D01*
X82647748Y-73677202D01*
X82704422Y-73565974D01*
X82745078Y-73518370D01*
X82820793Y-73442656D01*
X82968870Y-73238845D01*
X83083241Y-73014379D01*
X83161090Y-72774785D01*
X83200500Y-72525962D01*
X83200500Y-72274038D01*
X83161090Y-72025215D01*
X83083241Y-71785621D01*
X82968870Y-71561155D01*
X82820793Y-71357344D01*
X82642656Y-71179207D01*
X82438845Y-71031130D01*
X82214379Y-70916759D01*
X82213317Y-70916414D01*
X81974790Y-70838911D01*
X81974786Y-70838910D01*
X81974785Y-70838910D01*
X81725962Y-70799500D01*
X81725959Y-70799500D01*
X81633473Y-70799500D01*
X81510175Y-70779972D01*
X81398947Y-70723298D01*
X81388679Y-70715582D01*
X80687181Y-70170572D01*
X80601796Y-70079505D01*
X80552504Y-69978789D01*
X80507054Y-69838910D01*
X80483241Y-69765621D01*
X80368870Y-69541155D01*
X80220793Y-69337344D01*
X80042656Y-69159207D01*
X79838845Y-69011130D01*
X79614379Y-68896759D01*
X79554574Y-68877327D01*
X79374790Y-68818911D01*
X79374786Y-68818910D01*
X79374785Y-68818910D01*
X79125962Y-68779500D01*
X78874038Y-68779500D01*
X78625215Y-68818910D01*
X78625209Y-68818911D01*
X78385620Y-68896759D01*
X78161153Y-69011130D01*
X78034296Y-69103298D01*
X77923067Y-69159972D01*
X77799770Y-69179500D01*
X77686798Y-69179500D01*
X77563500Y-69159972D01*
X77452272Y-69103298D01*
X77404667Y-69062640D01*
X77277510Y-68935483D01*
X77197465Y-68877327D01*
X77117063Y-68818911D01*
X77086433Y-68796657D01*
X77057981Y-68782160D01*
X76875991Y-68689431D01*
X76651374Y-68616448D01*
X76651368Y-68616447D01*
X76418092Y-68579500D01*
X76181908Y-68579500D01*
X75992052Y-68609569D01*
X75948625Y-68616448D01*
X75724008Y-68689431D01*
X75513566Y-68796657D01*
X75513562Y-68796660D01*
X75322483Y-68935487D01*
X75310561Y-68945670D01*
X75308420Y-68943163D01*
X75230788Y-68999567D01*
X75112063Y-69038143D01*
X74987229Y-69038143D01*
X74868504Y-68999567D01*
X74791300Y-68943475D01*
X74789105Y-68946046D01*
X74777181Y-68935862D01*
X74586167Y-68797083D01*
X74586163Y-68797080D01*
X74375801Y-68689896D01*
X74375794Y-68689893D01*
X74300000Y-68665265D01*
X74300000Y-70314174D01*
X74265925Y-70187007D01*
X74200099Y-70072993D01*
X74107007Y-69979901D01*
X73992993Y-69914075D01*
X73865826Y-69880000D01*
X73734174Y-69880000D01*
X73607007Y-69914075D01*
X73492993Y-69979901D01*
X73399901Y-70072993D01*
X73334075Y-70187007D01*
X73300000Y-70314174D01*
X73300000Y-70445826D01*
X73334075Y-70572993D01*
X73399901Y-70687007D01*
X73492993Y-70780099D01*
X73607007Y-70845925D01*
X73734174Y-70880000D01*
X73865826Y-70880000D01*
X73992993Y-70845925D01*
X74107007Y-70780099D01*
X74200099Y-70687007D01*
X74265925Y-70572993D01*
X74300000Y-70445826D01*
X74300000Y-72094733D01*
X74311540Y-72103117D01*
X74361963Y-72095131D01*
X74485261Y-72114658D01*
X74596490Y-72171331D01*
X74684762Y-72259602D01*
X74741437Y-72370830D01*
X74760967Y-72494127D01*
X74741444Y-72617413D01*
X74738911Y-72625207D01*
X74726987Y-72700494D01*
X74699500Y-72874038D01*
X74699500Y-73125962D01*
X74713159Y-73212200D01*
X74738911Y-73374790D01*
X74816759Y-73614381D01*
X74819295Y-73619357D01*
X74821021Y-73624671D01*
X74822760Y-73628868D01*
X74822429Y-73629004D01*
X74857872Y-73738082D01*
X74857872Y-73862917D01*
X74819296Y-73981642D01*
X74745920Y-74082635D01*
X74644927Y-74156011D01*
X74526202Y-74194588D01*
X74463784Y-74199500D01*
X67975656Y-74199500D01*
X67852358Y-74179972D01*
X67741130Y-74123298D01*
X67652858Y-74035026D01*
X67596184Y-73923798D01*
X67576656Y-73800500D01*
X67596184Y-73677202D01*
X67620146Y-73619355D01*
X67622777Y-73614191D01*
X67700602Y-73374670D01*
X67740000Y-73125920D01*
X67740000Y-72874079D01*
X67700602Y-72625329D01*
X67622779Y-72385814D01*
X67622774Y-72385802D01*
X67568270Y-72278835D01*
X66775689Y-73071417D01*
X66674695Y-73144793D01*
X66613513Y-73164671D01*
X66640000Y-73065826D01*
X66640000Y-72934174D01*
X66605925Y-72807007D01*
X66540099Y-72692993D01*
X66447007Y-72599901D01*
X66332993Y-72534075D01*
X66205826Y-72500000D01*
X66074174Y-72500000D01*
X65947007Y-72534075D01*
X65832993Y-72599901D01*
X65739901Y-72692993D01*
X65674075Y-72807007D01*
X65640000Y-72934174D01*
X65640000Y-73065826D01*
X65666486Y-73164671D01*
X65605306Y-73144793D01*
X65504312Y-73071418D01*
X65504312Y-73071417D01*
X64711729Y-72278835D01*
X64711728Y-72278835D01*
X64657223Y-72385808D01*
X64579397Y-72625329D01*
X64540000Y-72874079D01*
X64540000Y-73125920D01*
X64579397Y-73374670D01*
X64657222Y-73614191D01*
X64659854Y-73619355D01*
X64661647Y-73624874D01*
X64663222Y-73628676D01*
X64662922Y-73628799D01*
X64698431Y-73738080D01*
X64698432Y-73862914D01*
X64659857Y-73981639D01*
X64586482Y-74082633D01*
X64485489Y-74156010D01*
X64366764Y-74194587D01*
X64304344Y-74199500D01*
X63294481Y-74199500D01*
X63105519Y-74199500D01*
X62918882Y-74229060D01*
X62918876Y-74229061D01*
X62739169Y-74287452D01*
X62570801Y-74373239D01*
X62417928Y-74484308D01*
X62284308Y-74617928D01*
X62173239Y-74770801D01*
X62087452Y-74939169D01*
X62029061Y-75118876D01*
X62029060Y-75118881D01*
X62029060Y-75118882D01*
X62026203Y-75136924D01*
X61999500Y-75305521D01*
X61999500Y-76142619D01*
X61979972Y-76265917D01*
X61923298Y-76377145D01*
X61835026Y-76465417D01*
X61723798Y-76522091D01*
X61600500Y-76541619D01*
X61477202Y-76522091D01*
X61460778Y-76516031D01*
X61456766Y-76514956D01*
X61409801Y-76508773D01*
X61339361Y-76499500D01*
X61339355Y-76499500D01*
X58660637Y-76499500D01*
X58543240Y-76514955D01*
X58397152Y-76575466D01*
X58374507Y-76588541D01*
X58373083Y-76586075D01*
X58298413Y-76626616D01*
X58175669Y-76649363D01*
X58165230Y-76649500D01*
X40264445Y-76649500D01*
X40141147Y-76629972D01*
X40029919Y-76573298D01*
X39941647Y-76485026D01*
X39884973Y-76373798D01*
X39865445Y-76250500D01*
X39884973Y-76127202D01*
X39895814Y-76097816D01*
X39896897Y-76095197D01*
X39896904Y-76095185D01*
X39972321Y-75863076D01*
X40010500Y-75622027D01*
X40010500Y-75377973D01*
X39972321Y-75136924D01*
X39896904Y-74904815D01*
X39786106Y-74687361D01*
X39786104Y-74687358D01*
X39786103Y-74687356D01*
X39642664Y-74489928D01*
X39642660Y-74489923D01*
X39642657Y-74489920D01*
X39642655Y-74489917D01*
X39470083Y-74317345D01*
X39470079Y-74317342D01*
X39470074Y-74317337D01*
X39302304Y-74195447D01*
X39214032Y-74107176D01*
X39165747Y-74019275D01*
X38552059Y-72466114D01*
X38398681Y-72077934D01*
X38371534Y-71956087D01*
X38383369Y-71831814D01*
X38390285Y-71808036D01*
X38401090Y-71774785D01*
X38440500Y-71525962D01*
X38440500Y-71274038D01*
X38401090Y-71025215D01*
X38323241Y-70785621D01*
X38208870Y-70561155D01*
X38060793Y-70357344D01*
X37882656Y-70179207D01*
X37678845Y-70031130D01*
X37454379Y-69916759D01*
X37446119Y-69914075D01*
X37214790Y-69838911D01*
X37214786Y-69838910D01*
X37214785Y-69838910D01*
X36965962Y-69799500D01*
X36714038Y-69799500D01*
X36465215Y-69838910D01*
X36465209Y-69838911D01*
X36225620Y-69916759D01*
X36001151Y-70031131D01*
X35934024Y-70079902D01*
X35822795Y-70136575D01*
X35699497Y-70156103D01*
X35576200Y-70136574D01*
X35464972Y-70079899D01*
X35376701Y-69991627D01*
X35320028Y-69880398D01*
X35300500Y-69757103D01*
X35300500Y-58075435D01*
X36399500Y-58075435D01*
X36399500Y-58324565D01*
X36421284Y-58490030D01*
X36432018Y-58571566D01*
X36432019Y-58571571D01*
X36496492Y-58812190D01*
X36496496Y-58812200D01*
X36496498Y-58812207D01*
X36591836Y-59042373D01*
X36591837Y-59042374D01*
X36591837Y-59042375D01*
X36716399Y-59258124D01*
X36716404Y-59258132D01*
X36868057Y-59455770D01*
X36868062Y-59455776D01*
X37044224Y-59631938D01*
X37044228Y-59631941D01*
X37044229Y-59631942D01*
X37241867Y-59783595D01*
X37241871Y-59783597D01*
X37241873Y-59783599D01*
X37457627Y-59908164D01*
X37687793Y-60003502D01*
X37687803Y-60003504D01*
X37687809Y-60003507D01*
X37892686Y-60058403D01*
X37928435Y-60067982D01*
X38175435Y-60100500D01*
X38175440Y-60100500D01*
X38424560Y-60100500D01*
X38424565Y-60100500D01*
X38671565Y-60067982D01*
X38784328Y-60037767D01*
X38912190Y-60003507D01*
X38912193Y-60003505D01*
X38912207Y-60003502D01*
X39142373Y-59908164D01*
X39358127Y-59783599D01*
X39555776Y-59631938D01*
X39731938Y-59455776D01*
X39883599Y-59258127D01*
X40008164Y-59042373D01*
X40103502Y-58812207D01*
X40106747Y-58800099D01*
X40163220Y-58589337D01*
X40167982Y-58571565D01*
X40200500Y-58324565D01*
X40200500Y-58075435D01*
X40167982Y-57828435D01*
X40140607Y-57726270D01*
X40103507Y-57587809D01*
X40103504Y-57587803D01*
X40103502Y-57587793D01*
X40008164Y-57357627D01*
X39883599Y-57141873D01*
X39883597Y-57141871D01*
X39883595Y-57141867D01*
X39731942Y-56944229D01*
X39731941Y-56944228D01*
X39731938Y-56944224D01*
X39555776Y-56768062D01*
X39555771Y-56768058D01*
X39555770Y-56768057D01*
X39358132Y-56616404D01*
X39358124Y-56616399D01*
X39172850Y-56509432D01*
X39142373Y-56491836D01*
X38912207Y-56396498D01*
X38912200Y-56396496D01*
X38912190Y-56396492D01*
X38671571Y-56332019D01*
X38671566Y-56332018D01*
X38630398Y-56326598D01*
X38424565Y-56299500D01*
X38175435Y-56299500D01*
X37999006Y-56322727D01*
X37928433Y-56332018D01*
X37928428Y-56332019D01*
X37687809Y-56396492D01*
X37687799Y-56396496D01*
X37687796Y-56396497D01*
X37687793Y-56396498D01*
X37457627Y-56491836D01*
X37457625Y-56491837D01*
X37457624Y-56491837D01*
X37241875Y-56616399D01*
X37241867Y-56616404D01*
X37044229Y-56768057D01*
X36868057Y-56944229D01*
X36716404Y-57141867D01*
X36716399Y-57141875D01*
X36591837Y-57357624D01*
X36591837Y-57357625D01*
X36591836Y-57357627D01*
X36501367Y-57576040D01*
X36496496Y-57587799D01*
X36496492Y-57587809D01*
X36432019Y-57828428D01*
X36432018Y-57828433D01*
X36431743Y-57830521D01*
X36399500Y-58075435D01*
X35300500Y-58075435D01*
X35300500Y-55299500D01*
X35320028Y-55176202D01*
X35376702Y-55064974D01*
X35464974Y-54976702D01*
X35576202Y-54920028D01*
X35699500Y-54900500D01*
X109700500Y-54900500D01*
X109823798Y-54920028D01*
G37*
G04 #@! TD.AperFunction*
G04 #@! TA.AperFunction,Conductor*
G36*
X81553199Y-97000028D02*
G01*
X81664425Y-97056701D01*
X81673567Y-97063343D01*
X81875475Y-97166220D01*
X81884008Y-97170568D01*
X82108625Y-97243551D01*
X82108626Y-97243551D01*
X82108632Y-97243553D01*
X82341908Y-97280500D01*
X82341911Y-97280500D01*
X83378089Y-97280500D01*
X83378092Y-97280500D01*
X83611368Y-97243553D01*
X83677205Y-97222160D01*
X83800497Y-97202633D01*
X83923795Y-97222161D01*
X84035024Y-97278833D01*
X84123296Y-97367104D01*
X84179971Y-97478332D01*
X84199500Y-97601630D01*
X84199500Y-99694144D01*
X84179972Y-99817442D01*
X84123298Y-99928670D01*
X84035026Y-100016942D01*
X83923798Y-100073616D01*
X83800500Y-100093144D01*
X83677202Y-100073616D01*
X83580191Y-100024188D01*
X83579528Y-100025271D01*
X83566163Y-100017080D01*
X83355801Y-99909896D01*
X83355794Y-99909893D01*
X83280000Y-99885265D01*
X83280000Y-101534174D01*
X83245925Y-101407007D01*
X83180099Y-101292993D01*
X83087007Y-101199901D01*
X82972993Y-101134075D01*
X82845826Y-101100000D01*
X82714174Y-101100000D01*
X82587007Y-101134075D01*
X82472993Y-101199901D01*
X82379901Y-101292993D01*
X82314075Y-101407007D01*
X82280000Y-101534174D01*
X82280000Y-101665826D01*
X82314075Y-101792993D01*
X82379901Y-101907007D01*
X82472993Y-102000099D01*
X82587007Y-102065925D01*
X82714174Y-102100000D01*
X82845826Y-102100000D01*
X82972993Y-102065925D01*
X83087007Y-102000099D01*
X83180099Y-101907007D01*
X83245925Y-101792993D01*
X83280000Y-101665826D01*
X83280000Y-103314733D01*
X83355800Y-103290103D01*
X83566167Y-103182916D01*
X83579528Y-103174729D01*
X83580192Y-103175813D01*
X83677194Y-103126386D01*
X83800492Y-103106855D01*
X83923790Y-103126381D01*
X84035020Y-103183052D01*
X84123293Y-103271322D01*
X84179969Y-103382549D01*
X84199500Y-103505847D01*
X84199500Y-105799770D01*
X84179972Y-105923068D01*
X84123298Y-106034296D01*
X84031130Y-106161153D01*
X83916759Y-106385620D01*
X83838911Y-106625209D01*
X83838910Y-106625214D01*
X83838910Y-106625215D01*
X83828820Y-106688924D01*
X83799500Y-106874040D01*
X83799500Y-107124885D01*
X83779972Y-107248183D01*
X83723298Y-107359411D01*
X83635026Y-107447683D01*
X83523798Y-107504357D01*
X83400500Y-107523885D01*
X83280526Y-107504883D01*
X83280000Y-107505266D01*
X83280000Y-109154174D01*
X83245925Y-109027007D01*
X83180099Y-108912993D01*
X83087007Y-108819901D01*
X82972993Y-108754075D01*
X82845826Y-108720000D01*
X82714174Y-108720000D01*
X82587007Y-108754075D01*
X82472993Y-108819901D01*
X82379901Y-108912993D01*
X82314075Y-109027007D01*
X82280000Y-109154174D01*
X82280000Y-107505266D01*
X82279999Y-107505265D01*
X82204205Y-107529893D01*
X82204198Y-107529896D01*
X81993836Y-107637080D01*
X81993832Y-107637083D01*
X81802818Y-107775862D01*
X81802804Y-107775873D01*
X81792475Y-107786203D01*
X81691479Y-107859574D01*
X81572752Y-107898145D01*
X81447917Y-107898139D01*
X81329194Y-107859557D01*
X81228217Y-107786190D01*
X81217509Y-107775482D01*
X81026437Y-107636660D01*
X81026433Y-107636657D01*
X80815991Y-107529431D01*
X80591374Y-107456448D01*
X80591368Y-107456447D01*
X80358092Y-107419500D01*
X80121908Y-107419500D01*
X79943966Y-107447683D01*
X79888625Y-107456448D01*
X79664008Y-107529431D01*
X79453566Y-107636657D01*
X79453562Y-107636660D01*
X79262490Y-107775482D01*
X79252136Y-107785837D01*
X79151142Y-107859213D01*
X79032417Y-107897789D01*
X78907583Y-107897789D01*
X78788858Y-107859213D01*
X78687864Y-107785837D01*
X78677509Y-107775482D01*
X78486437Y-107636660D01*
X78486433Y-107636657D01*
X78275991Y-107529431D01*
X78051374Y-107456448D01*
X78051368Y-107456447D01*
X77818092Y-107419500D01*
X77581908Y-107419500D01*
X77403966Y-107447683D01*
X77348625Y-107456448D01*
X77124008Y-107529431D01*
X76913566Y-107636657D01*
X76913562Y-107636660D01*
X76722490Y-107775482D01*
X76712136Y-107785837D01*
X76611142Y-107859213D01*
X76492417Y-107897789D01*
X76367583Y-107897789D01*
X76248858Y-107859213D01*
X76147864Y-107785837D01*
X76137509Y-107775482D01*
X75946437Y-107636660D01*
X75946433Y-107636657D01*
X75735991Y-107529431D01*
X75511374Y-107456448D01*
X75511368Y-107456447D01*
X75278092Y-107419500D01*
X75041908Y-107419500D01*
X74863966Y-107447683D01*
X74808625Y-107456448D01*
X74584008Y-107529431D01*
X74373566Y-107636657D01*
X74373562Y-107636660D01*
X74182490Y-107775482D01*
X74172136Y-107785837D01*
X74071142Y-107859213D01*
X73952417Y-107897789D01*
X73827583Y-107897789D01*
X73708858Y-107859213D01*
X73607864Y-107785837D01*
X73597509Y-107775482D01*
X73406437Y-107636660D01*
X73406433Y-107636657D01*
X73195991Y-107529431D01*
X72971374Y-107456448D01*
X72971368Y-107456447D01*
X72738092Y-107419500D01*
X72501908Y-107419500D01*
X72323966Y-107447683D01*
X72268625Y-107456448D01*
X72044008Y-107529431D01*
X71833566Y-107636657D01*
X71833562Y-107636660D01*
X71642490Y-107775482D01*
X71632136Y-107785837D01*
X71531142Y-107859213D01*
X71412417Y-107897789D01*
X71287583Y-107897789D01*
X71168858Y-107859213D01*
X71067864Y-107785837D01*
X71057509Y-107775482D01*
X70866437Y-107636660D01*
X70866433Y-107636657D01*
X70655991Y-107529431D01*
X70431374Y-107456448D01*
X70431368Y-107456447D01*
X70198092Y-107419500D01*
X69961908Y-107419500D01*
X69783966Y-107447683D01*
X69728625Y-107456448D01*
X69504008Y-107529431D01*
X69293566Y-107636657D01*
X69293562Y-107636660D01*
X69102490Y-107775482D01*
X69092136Y-107785837D01*
X68991142Y-107859213D01*
X68872417Y-107897789D01*
X68747583Y-107897789D01*
X68628858Y-107859213D01*
X68527864Y-107785837D01*
X68517509Y-107775482D01*
X68326437Y-107636660D01*
X68326433Y-107636657D01*
X68115991Y-107529431D01*
X67891374Y-107456448D01*
X67891368Y-107456447D01*
X67658092Y-107419500D01*
X67421908Y-107419500D01*
X67243966Y-107447683D01*
X67188625Y-107456448D01*
X66964008Y-107529431D01*
X66753566Y-107636657D01*
X66753562Y-107636660D01*
X66562490Y-107775482D01*
X66552136Y-107785837D01*
X66451142Y-107859213D01*
X66332417Y-107897789D01*
X66207583Y-107897789D01*
X66088858Y-107859213D01*
X65987864Y-107785837D01*
X65977509Y-107775482D01*
X65786437Y-107636660D01*
X65786433Y-107636657D01*
X65575991Y-107529431D01*
X65351374Y-107456448D01*
X65351368Y-107456447D01*
X65118092Y-107419500D01*
X64881908Y-107419500D01*
X64703966Y-107447683D01*
X64648625Y-107456448D01*
X64424008Y-107529431D01*
X64213566Y-107636657D01*
X64213562Y-107636660D01*
X64022490Y-107775482D01*
X64012136Y-107785837D01*
X63911142Y-107859213D01*
X63792417Y-107897789D01*
X63667583Y-107897789D01*
X63548858Y-107859213D01*
X63447864Y-107785837D01*
X63437509Y-107775482D01*
X63246437Y-107636660D01*
X63246433Y-107636657D01*
X63035991Y-107529431D01*
X62811374Y-107456448D01*
X62811368Y-107456447D01*
X62578092Y-107419500D01*
X62341908Y-107419500D01*
X62163966Y-107447683D01*
X62108625Y-107456448D01*
X61884008Y-107529431D01*
X61673566Y-107636657D01*
X61673562Y-107636660D01*
X61482490Y-107775482D01*
X61315482Y-107942490D01*
X61176660Y-108133562D01*
X61176657Y-108133566D01*
X61069431Y-108344008D01*
X60996448Y-108568625D01*
X60959500Y-108801910D01*
X60959500Y-109638089D01*
X60996448Y-109871374D01*
X61069431Y-110095991D01*
X61176657Y-110306433D01*
X61176658Y-110306434D01*
X61183295Y-110315569D01*
X61239970Y-110426797D01*
X61259500Y-110550094D01*
X61259500Y-112367350D01*
X61239972Y-112490648D01*
X61183298Y-112601876D01*
X61095026Y-112690148D01*
X60983798Y-112746822D01*
X60860500Y-112766350D01*
X60737202Y-112746822D01*
X60679357Y-112722861D01*
X60495991Y-112629431D01*
X60271374Y-112556448D01*
X60271368Y-112556447D01*
X60038092Y-112519500D01*
X59801908Y-112519500D01*
X59612052Y-112549569D01*
X59568625Y-112556448D01*
X59472795Y-112587585D01*
X59349497Y-112607113D01*
X59226199Y-112587584D01*
X59114971Y-112530909D01*
X59026700Y-112442637D01*
X58970028Y-112331408D01*
X58950500Y-112208113D01*
X58950500Y-103711886D01*
X58970028Y-103588588D01*
X59026702Y-103477360D01*
X59114974Y-103389088D01*
X59226202Y-103332414D01*
X59349500Y-103312886D01*
X59472794Y-103332413D01*
X59472798Y-103332414D01*
X59472798Y-103332415D01*
X59568625Y-103363551D01*
X59568626Y-103363551D01*
X59568632Y-103363553D01*
X59801908Y-103400500D01*
X59801911Y-103400500D01*
X60038089Y-103400500D01*
X60038092Y-103400500D01*
X60271368Y-103363553D01*
X60495992Y-103290568D01*
X60706433Y-103183343D01*
X60897510Y-103044517D01*
X61064517Y-102877510D01*
X61203343Y-102686433D01*
X61310568Y-102475992D01*
X61383553Y-102251368D01*
X61420500Y-102018092D01*
X61420500Y-101181908D01*
X61383553Y-100948632D01*
X61310568Y-100724008D01*
X61203343Y-100513567D01*
X61064517Y-100322490D01*
X61017588Y-100275561D01*
X60944212Y-100174567D01*
X60905636Y-100055842D01*
X60905636Y-99931008D01*
X60944212Y-99812283D01*
X61017588Y-99711289D01*
X61118573Y-99637919D01*
X61186433Y-99603343D01*
X61377510Y-99464517D01*
X61544517Y-99297510D01*
X61683343Y-99106433D01*
X61790568Y-98895992D01*
X61863553Y-98671368D01*
X61900500Y-98438092D01*
X61900500Y-98201908D01*
X61863553Y-97968632D01*
X61790568Y-97744008D01*
X61781817Y-97726832D01*
X61743241Y-97608107D01*
X61743242Y-97483272D01*
X61781818Y-97364547D01*
X61855194Y-97263554D01*
X61956188Y-97190179D01*
X62074913Y-97151603D01*
X62199748Y-97151604D01*
X62260628Y-97166220D01*
X62274004Y-97170566D01*
X62274008Y-97170568D01*
X62498632Y-97243553D01*
X62731908Y-97280500D01*
X62731911Y-97280500D01*
X62968089Y-97280500D01*
X62968092Y-97280500D01*
X63201368Y-97243553D01*
X63277203Y-97218912D01*
X63400498Y-97199384D01*
X63523796Y-97218912D01*
X63635025Y-97275585D01*
X63723297Y-97363856D01*
X63779971Y-97475084D01*
X63799500Y-97598382D01*
X63799500Y-100269900D01*
X63779972Y-100393198D01*
X63723298Y-100504426D01*
X63716657Y-100513565D01*
X63609430Y-100724011D01*
X63536448Y-100948625D01*
X63536447Y-100948632D01*
X63499500Y-101181908D01*
X63499500Y-102018092D01*
X63523429Y-102169174D01*
X63536448Y-102251374D01*
X63609431Y-102475991D01*
X63704999Y-102663553D01*
X63716657Y-102686433D01*
X63855483Y-102877510D01*
X64022490Y-103044517D01*
X64213567Y-103183343D01*
X64386236Y-103271322D01*
X64424008Y-103290568D01*
X64648625Y-103363551D01*
X64648626Y-103363551D01*
X64648632Y-103363553D01*
X64881908Y-103400500D01*
X64881911Y-103400500D01*
X65118089Y-103400500D01*
X65118092Y-103400500D01*
X65351368Y-103363553D01*
X65575992Y-103290568D01*
X65786433Y-103183343D01*
X65977510Y-103044517D01*
X65987864Y-103034163D01*
X66088858Y-102960787D01*
X66207583Y-102922211D01*
X66332417Y-102922211D01*
X66451142Y-102960787D01*
X66552136Y-103034163D01*
X66562490Y-103044517D01*
X66753567Y-103183343D01*
X66926236Y-103271322D01*
X66964008Y-103290568D01*
X67188625Y-103363551D01*
X67188626Y-103363551D01*
X67188632Y-103363553D01*
X67421908Y-103400500D01*
X67421911Y-103400500D01*
X67658089Y-103400500D01*
X67658092Y-103400500D01*
X67891368Y-103363553D01*
X68115992Y-103290568D01*
X68326433Y-103183343D01*
X68517510Y-103044517D01*
X68527864Y-103034163D01*
X68628858Y-102960787D01*
X68747583Y-102922211D01*
X68872417Y-102922211D01*
X68991142Y-102960787D01*
X69092136Y-103034163D01*
X69102490Y-103044517D01*
X69293567Y-103183343D01*
X69466236Y-103271322D01*
X69504008Y-103290568D01*
X69728625Y-103363551D01*
X69728626Y-103363551D01*
X69728632Y-103363553D01*
X69961908Y-103400500D01*
X69961911Y-103400500D01*
X70198089Y-103400500D01*
X70198092Y-103400500D01*
X70431368Y-103363553D01*
X70655992Y-103290568D01*
X70866433Y-103183343D01*
X71057510Y-103044517D01*
X71068211Y-103033815D01*
X71169194Y-102960441D01*
X71287918Y-102921859D01*
X71412752Y-102921853D01*
X71531479Y-102960424D01*
X71632476Y-103033795D01*
X71642818Y-103044137D01*
X71833832Y-103182916D01*
X72044199Y-103290103D01*
X72119999Y-103314733D01*
X72120000Y-103314733D01*
X72120000Y-102105294D01*
X73120000Y-102105294D01*
X73120000Y-103314733D01*
X73195800Y-103290103D01*
X73406167Y-103182916D01*
X73597181Y-103044137D01*
X73607864Y-103033455D01*
X73708858Y-102960079D01*
X73827583Y-102921503D01*
X73952417Y-102921503D01*
X74071142Y-102960079D01*
X74172136Y-103033455D01*
X74182818Y-103044137D01*
X74373832Y-103182916D01*
X74584199Y-103290103D01*
X74659999Y-103314733D01*
X74660000Y-103314733D01*
X74660000Y-102100001D01*
X75660000Y-102100001D01*
X75660000Y-103314733D01*
X75735800Y-103290103D01*
X75946167Y-103182916D01*
X76137181Y-103044137D01*
X76147864Y-103033455D01*
X76248858Y-102960079D01*
X76367583Y-102921503D01*
X76492417Y-102921503D01*
X76611142Y-102960079D01*
X76712136Y-103033455D01*
X76722818Y-103044137D01*
X76913832Y-103182916D01*
X77124199Y-103290103D01*
X77200000Y-103314733D01*
X77200000Y-102100001D01*
X78200000Y-102100001D01*
X78200000Y-103314733D01*
X78275800Y-103290103D01*
X78486167Y-103182916D01*
X78677181Y-103044137D01*
X78687864Y-103033455D01*
X78788858Y-102960079D01*
X78907583Y-102921503D01*
X79032417Y-102921503D01*
X79151142Y-102960079D01*
X79252136Y-103033455D01*
X79262818Y-103044137D01*
X79453832Y-103182916D01*
X79664199Y-103290103D01*
X79740000Y-103314733D01*
X79740000Y-102100001D01*
X80740000Y-102100001D01*
X80740000Y-103314733D01*
X80815800Y-103290103D01*
X81026167Y-103182916D01*
X81217181Y-103044137D01*
X81227864Y-103033455D01*
X81328858Y-102960079D01*
X81447583Y-102921503D01*
X81572417Y-102921503D01*
X81691142Y-102960079D01*
X81792136Y-103033455D01*
X81802818Y-103044137D01*
X81993832Y-103182916D01*
X82204199Y-103290103D01*
X82279999Y-103314733D01*
X82280000Y-103314733D01*
X82280000Y-102100001D01*
X82279999Y-102100000D01*
X80740001Y-102100000D01*
X80740000Y-102100001D01*
X79740000Y-102100001D01*
X79739999Y-102100000D01*
X78200001Y-102100000D01*
X78200000Y-102100001D01*
X77200000Y-102100001D01*
X77199999Y-102100000D01*
X75660001Y-102100000D01*
X75660000Y-102100001D01*
X74660000Y-102100001D01*
X74659999Y-102100000D01*
X73128884Y-102100000D01*
X73120000Y-102105294D01*
X72120000Y-102105294D01*
X72120000Y-101999000D01*
X72139528Y-101875702D01*
X72168733Y-101818382D01*
X72219901Y-101907007D01*
X72312993Y-102000099D01*
X72427007Y-102065925D01*
X72554174Y-102100000D01*
X72685826Y-102100000D01*
X72812993Y-102065925D01*
X72927007Y-102000099D01*
X73020099Y-101907007D01*
X73085925Y-101792993D01*
X73120000Y-101665826D01*
X73120000Y-101534174D01*
X73085925Y-101407007D01*
X73020099Y-101292993D01*
X72927007Y-101199901D01*
X72838382Y-101148733D01*
X72895702Y-101119528D01*
X73019000Y-101100000D01*
X75094174Y-101100000D01*
X74967007Y-101134075D01*
X74852993Y-101199901D01*
X74759901Y-101292993D01*
X74694075Y-101407007D01*
X74660000Y-101534174D01*
X74660000Y-101665826D01*
X74694075Y-101792993D01*
X74759901Y-101907007D01*
X74852993Y-102000099D01*
X74967007Y-102065925D01*
X75094174Y-102100000D01*
X75225826Y-102100000D01*
X75352993Y-102065925D01*
X75467007Y-102000099D01*
X75560099Y-101907007D01*
X75625925Y-101792993D01*
X75660000Y-101665826D01*
X75660000Y-101534174D01*
X77200000Y-101534174D01*
X77200000Y-101665826D01*
X77234075Y-101792993D01*
X77299901Y-101907007D01*
X77392993Y-102000099D01*
X77507007Y-102065925D01*
X77634174Y-102100000D01*
X77765826Y-102100000D01*
X77892993Y-102065925D01*
X78007007Y-102000099D01*
X78100099Y-101907007D01*
X78165925Y-101792993D01*
X78200000Y-101665826D01*
X78200000Y-101534174D01*
X79740000Y-101534174D01*
X79740000Y-101665826D01*
X79774075Y-101792993D01*
X79839901Y-101907007D01*
X79932993Y-102000099D01*
X80047007Y-102065925D01*
X80174174Y-102100000D01*
X80305826Y-102100000D01*
X80432993Y-102065925D01*
X80547007Y-102000099D01*
X80640099Y-101907007D01*
X80705925Y-101792993D01*
X80740000Y-101665826D01*
X80740000Y-101534174D01*
X80705925Y-101407007D01*
X80640099Y-101292993D01*
X80547007Y-101199901D01*
X80432993Y-101134075D01*
X80305826Y-101100000D01*
X80174174Y-101100000D01*
X80047007Y-101134075D01*
X79932993Y-101199901D01*
X79839901Y-101292993D01*
X79774075Y-101407007D01*
X79740000Y-101534174D01*
X78200000Y-101534174D01*
X78165925Y-101407007D01*
X78100099Y-101292993D01*
X78007007Y-101199901D01*
X77892993Y-101134075D01*
X77765826Y-101100000D01*
X77634174Y-101100000D01*
X77507007Y-101134075D01*
X77392993Y-101199901D01*
X77299901Y-101292993D01*
X77234075Y-101407007D01*
X77200000Y-101534174D01*
X75660000Y-101534174D01*
X75625925Y-101407007D01*
X75560099Y-101292993D01*
X75467007Y-101199901D01*
X75352993Y-101134075D01*
X75225826Y-101100000D01*
X77199999Y-101100000D01*
X77200000Y-101099999D01*
X77200000Y-99885266D01*
X77199999Y-99885265D01*
X78200000Y-99885265D01*
X78200000Y-101099999D01*
X78200001Y-101100000D01*
X79739999Y-101100000D01*
X79740000Y-101099999D01*
X79740000Y-99885266D01*
X79739999Y-99885265D01*
X80740000Y-99885265D01*
X80740000Y-101099999D01*
X80740001Y-101100000D01*
X82279999Y-101100000D01*
X82280000Y-101099999D01*
X82280000Y-99885266D01*
X82279999Y-99885265D01*
X82204205Y-99909893D01*
X82204198Y-99909896D01*
X81993836Y-100017080D01*
X81993832Y-100017083D01*
X81802818Y-100155862D01*
X81792136Y-100166545D01*
X81691142Y-100239921D01*
X81572417Y-100278497D01*
X81447583Y-100278497D01*
X81328858Y-100239921D01*
X81227864Y-100166545D01*
X81217181Y-100155862D01*
X81026167Y-100017083D01*
X81026163Y-100017080D01*
X80815801Y-99909896D01*
X80815794Y-99909893D01*
X80740000Y-99885265D01*
X79739999Y-99885265D01*
X79664205Y-99909893D01*
X79664198Y-99909896D01*
X79453836Y-100017080D01*
X79453832Y-100017083D01*
X79262818Y-100155862D01*
X79252136Y-100166545D01*
X79151142Y-100239921D01*
X79032417Y-100278497D01*
X78907583Y-100278497D01*
X78788858Y-100239921D01*
X78687864Y-100166545D01*
X78677181Y-100155862D01*
X78486167Y-100017083D01*
X78486163Y-100017080D01*
X78275801Y-99909896D01*
X78275794Y-99909893D01*
X78200000Y-99885265D01*
X77199999Y-99885265D01*
X77187759Y-99876373D01*
X77141734Y-99883663D01*
X77018436Y-99864135D01*
X76907207Y-99807462D01*
X76818935Y-99719191D01*
X76762261Y-99607962D01*
X76742732Y-99484665D01*
X76762260Y-99361367D01*
X76818928Y-99250146D01*
X76923343Y-99106433D01*
X77030568Y-98895992D01*
X77103553Y-98671368D01*
X77140500Y-98438092D01*
X77140500Y-98201908D01*
X77103553Y-97968632D01*
X77030568Y-97744008D01*
X76937139Y-97560643D01*
X76898562Y-97441918D01*
X76898562Y-97317083D01*
X76937138Y-97198358D01*
X77010514Y-97097365D01*
X77111507Y-97023989D01*
X77230232Y-96985412D01*
X77292650Y-96980500D01*
X81429901Y-96980500D01*
X81553199Y-97000028D01*
G37*
G04 #@! TD.AperFunction*
G04 #@! TA.AperFunction,Conductor*
G36*
X58288528Y-79370028D02*
G01*
X58373446Y-79413296D01*
X58374507Y-79411459D01*
X58397153Y-79424533D01*
X58397157Y-79424534D01*
X58397159Y-79424536D01*
X58543238Y-79485044D01*
X58660639Y-79500500D01*
X61339360Y-79500499D01*
X61339362Y-79500499D01*
X61398061Y-79492771D01*
X61456762Y-79485044D01*
X61456765Y-79485042D01*
X61482021Y-79478276D01*
X61482590Y-79480402D01*
X61569190Y-79459610D01*
X61693640Y-79469403D01*
X61808973Y-79517174D01*
X61903899Y-79598246D01*
X61969126Y-79704685D01*
X61998270Y-79826070D01*
X61999500Y-79857380D01*
X61999500Y-81480500D01*
X61979972Y-81603798D01*
X61923298Y-81715026D01*
X61835026Y-81803298D01*
X61723798Y-81859972D01*
X61600500Y-81879500D01*
X61430099Y-81879500D01*
X61306801Y-81859972D01*
X61195574Y-81803298D01*
X61186433Y-81796657D01*
X61069746Y-81737202D01*
X60975991Y-81689431D01*
X60751374Y-81616448D01*
X60751368Y-81616447D01*
X60518092Y-81579500D01*
X59481908Y-81579500D01*
X59292052Y-81609569D01*
X59248625Y-81616448D01*
X59024008Y-81689431D01*
X58813566Y-81796657D01*
X58813565Y-81796658D01*
X58804431Y-81803295D01*
X58693203Y-81859970D01*
X58569906Y-81879500D01*
X55200230Y-81879500D01*
X55076932Y-81859972D01*
X54965704Y-81803298D01*
X54838846Y-81711130D01*
X54614379Y-81596759D01*
X54374790Y-81518911D01*
X54374786Y-81518910D01*
X54374785Y-81518910D01*
X54125962Y-81479500D01*
X53874038Y-81479500D01*
X53625215Y-81518910D01*
X53625209Y-81518911D01*
X53385620Y-81596759D01*
X53161154Y-81711130D01*
X52957346Y-81859205D01*
X52779205Y-82037346D01*
X52631130Y-82241154D01*
X52516759Y-82465620D01*
X52438911Y-82705209D01*
X52438910Y-82705214D01*
X52438910Y-82705215D01*
X52399500Y-82954038D01*
X52399500Y-83205962D01*
X52438910Y-83454785D01*
X52438911Y-83454790D01*
X52516760Y-83694382D01*
X52590629Y-83839359D01*
X52629205Y-83958084D01*
X52629204Y-84082918D01*
X52590628Y-84201643D01*
X52517252Y-84302636D01*
X52416258Y-84376012D01*
X52297533Y-84414588D01*
X52235117Y-84419500D01*
X46027928Y-84419500D01*
X45904630Y-84399972D01*
X45793402Y-84343298D01*
X45705130Y-84255026D01*
X45664986Y-84186253D01*
X45548598Y-83931403D01*
X45432980Y-83678240D01*
X45399524Y-83557976D01*
X45401835Y-83450075D01*
X45440500Y-83205962D01*
X45440500Y-82954038D01*
X45401090Y-82705215D01*
X45323241Y-82465621D01*
X45208870Y-82241155D01*
X45060793Y-82037344D01*
X44882656Y-81859207D01*
X44678845Y-81711130D01*
X44454379Y-81596759D01*
X44214790Y-81518911D01*
X44214786Y-81518910D01*
X44214785Y-81518910D01*
X43965962Y-81479500D01*
X43714038Y-81479500D01*
X43465215Y-81518910D01*
X43465209Y-81518911D01*
X43387806Y-81544061D01*
X43264508Y-81563589D01*
X43141210Y-81544060D01*
X43126948Y-81539125D01*
X42547964Y-81326437D01*
X42505076Y-81310682D01*
X42396074Y-81249836D01*
X42311210Y-81158284D01*
X42287148Y-81117296D01*
X42183342Y-80913565D01*
X42183339Y-80913562D01*
X42167218Y-80891374D01*
X42044517Y-80722490D01*
X41877510Y-80555483D01*
X41686433Y-80416657D01*
X41681293Y-80414038D01*
X41475991Y-80309431D01*
X41251374Y-80236448D01*
X41251368Y-80236447D01*
X41018092Y-80199500D01*
X40781908Y-80199500D01*
X40592052Y-80229569D01*
X40548625Y-80236448D01*
X40324008Y-80309431D01*
X40113566Y-80416657D01*
X40113562Y-80416660D01*
X39922490Y-80555482D01*
X39755482Y-80722490D01*
X39616660Y-80913562D01*
X39616657Y-80913566D01*
X39509431Y-81124008D01*
X39436448Y-81348625D01*
X39436447Y-81348632D01*
X39399500Y-81581908D01*
X39399500Y-82418092D01*
X39413108Y-82504008D01*
X39436448Y-82651374D01*
X39509431Y-82875991D01*
X39616657Y-83086433D01*
X39616660Y-83086437D01*
X39692281Y-83190521D01*
X39755483Y-83277510D01*
X39922490Y-83444517D01*
X40113567Y-83583343D01*
X40251091Y-83653415D01*
X40324008Y-83690568D01*
X40548625Y-83763551D01*
X40548626Y-83763551D01*
X40548632Y-83763553D01*
X40781908Y-83800500D01*
X40781911Y-83800500D01*
X41018089Y-83800500D01*
X41018092Y-83800500D01*
X41251368Y-83763553D01*
X41475992Y-83690568D01*
X41548912Y-83653413D01*
X41667632Y-83614837D01*
X41792466Y-83614836D01*
X41867631Y-83634393D01*
X42295040Y-83791401D01*
X42404040Y-83852246D01*
X42480253Y-83931402D01*
X42619207Y-84122656D01*
X42797344Y-84300793D01*
X42883434Y-84363341D01*
X43001156Y-84448871D01*
X43065132Y-84481468D01*
X43166125Y-84554843D01*
X43239502Y-84655836D01*
X43246933Y-84671227D01*
X43869992Y-86035510D01*
X43886520Y-86077961D01*
X43887452Y-86080831D01*
X43914791Y-86134486D01*
X43922219Y-86149871D01*
X43947234Y-86204645D01*
X43947244Y-86204662D01*
X43948899Y-86207158D01*
X43971870Y-86246511D01*
X43973236Y-86249192D01*
X43973243Y-86249204D01*
X44008631Y-86297912D01*
X44018374Y-86311944D01*
X44051657Y-86362141D01*
X44051661Y-86362147D01*
X44053709Y-86364378D01*
X44082531Y-86399625D01*
X44084306Y-86402068D01*
X44084312Y-86402075D01*
X44126886Y-86444649D01*
X44138706Y-86456987D01*
X44179435Y-86501363D01*
X44181792Y-86503235D01*
X44215796Y-86533559D01*
X44217927Y-86535690D01*
X44251865Y-86560347D01*
X44266645Y-86571086D01*
X44280231Y-86581408D01*
X44327412Y-86618876D01*
X44330040Y-86620360D01*
X44368359Y-86644985D01*
X44370801Y-86646760D01*
X44424454Y-86674097D01*
X44439513Y-86682181D01*
X44491951Y-86711794D01*
X44494763Y-86712842D01*
X44536490Y-86731183D01*
X44539158Y-86732542D01*
X44539168Y-86732547D01*
X44555999Y-86738015D01*
X44596460Y-86751163D01*
X44612594Y-86756790D01*
X44669001Y-86777828D01*
X44671943Y-86778424D01*
X44716007Y-86790006D01*
X44716640Y-86790211D01*
X44718881Y-86790939D01*
X44718881Y-86790940D01*
X44734647Y-86793436D01*
X44778365Y-86800360D01*
X44795166Y-86803391D01*
X44854200Y-86815354D01*
X44857219Y-86815483D01*
X44902554Y-86820030D01*
X44905519Y-86820500D01*
X44965730Y-86820500D01*
X44982813Y-86820866D01*
X45042990Y-86823445D01*
X45045988Y-86823101D01*
X45091472Y-86820500D01*
X55469901Y-86820500D01*
X55593199Y-86840028D01*
X55704425Y-86896701D01*
X55713567Y-86903343D01*
X55924008Y-87010568D01*
X56148625Y-87083551D01*
X56148626Y-87083551D01*
X56148632Y-87083553D01*
X56381908Y-87120500D01*
X56381911Y-87120500D01*
X57218089Y-87120500D01*
X57218092Y-87120500D01*
X57451368Y-87083553D01*
X57675992Y-87010568D01*
X57696963Y-86999882D01*
X57815686Y-86961305D01*
X57940521Y-86961303D01*
X58059246Y-86999878D01*
X58160240Y-87073252D01*
X58233618Y-87174245D01*
X58272196Y-87292969D01*
X58272198Y-87417804D01*
X58233623Y-87536529D01*
X58233621Y-87536533D01*
X58209431Y-87584008D01*
X58136448Y-87808625D01*
X58133211Y-87829061D01*
X58099500Y-88041908D01*
X58099500Y-88278092D01*
X58117930Y-88394453D01*
X58136448Y-88511374D01*
X58209431Y-88735991D01*
X58233620Y-88783464D01*
X58272196Y-88902188D01*
X58272197Y-89027023D01*
X58233621Y-89145748D01*
X58160246Y-89246742D01*
X58059252Y-89320118D01*
X57940528Y-89358694D01*
X57815693Y-89358695D01*
X57696970Y-89320120D01*
X57675992Y-89309431D01*
X57451374Y-89236448D01*
X57451368Y-89236447D01*
X57218092Y-89199500D01*
X56381908Y-89199500D01*
X56192052Y-89229569D01*
X56148625Y-89236448D01*
X55924008Y-89309431D01*
X55713566Y-89416657D01*
X55713565Y-89416658D01*
X55704431Y-89423295D01*
X55593203Y-89479970D01*
X55469906Y-89499500D01*
X55200230Y-89499500D01*
X55076932Y-89479972D01*
X54965704Y-89423298D01*
X54838846Y-89331130D01*
X54614379Y-89216759D01*
X54374790Y-89138911D01*
X54374786Y-89138910D01*
X54374785Y-89138910D01*
X54125962Y-89099500D01*
X53874038Y-89099500D01*
X53625215Y-89138910D01*
X53625209Y-89138911D01*
X53385620Y-89216759D01*
X53161154Y-89331130D01*
X52957346Y-89479205D01*
X52779205Y-89657346D01*
X52631130Y-89861154D01*
X52516759Y-90085620D01*
X52438911Y-90325209D01*
X52438910Y-90325214D01*
X52438910Y-90325215D01*
X52399500Y-90574038D01*
X52399500Y-90825962D01*
X52438910Y-91074785D01*
X52438911Y-91074790D01*
X52480455Y-91202648D01*
X52516759Y-91314379D01*
X52631130Y-91538845D01*
X52779207Y-91742656D01*
X52957344Y-91920793D01*
X53161155Y-92068870D01*
X53385621Y-92183241D01*
X53625215Y-92261090D01*
X53874038Y-92300500D01*
X53874041Y-92300500D01*
X54125959Y-92300500D01*
X54125962Y-92300500D01*
X54374785Y-92261090D01*
X54614379Y-92183241D01*
X54838845Y-92068870D01*
X54956563Y-91983343D01*
X54965704Y-91976702D01*
X55076933Y-91920028D01*
X55200230Y-91900500D01*
X55469901Y-91900500D01*
X55593199Y-91920028D01*
X55704425Y-91976701D01*
X55713567Y-91983343D01*
X55912234Y-92084569D01*
X55924008Y-92090568D01*
X56148625Y-92163551D01*
X56148626Y-92163551D01*
X56148632Y-92163553D01*
X56381908Y-92200500D01*
X56381911Y-92200500D01*
X57218089Y-92200500D01*
X57218092Y-92200500D01*
X57451368Y-92163553D01*
X57675992Y-92090568D01*
X57696963Y-92079882D01*
X57815686Y-92041305D01*
X57940521Y-92041303D01*
X58059246Y-92079878D01*
X58160240Y-92153252D01*
X58233618Y-92254245D01*
X58272196Y-92372969D01*
X58272198Y-92497804D01*
X58233623Y-92616529D01*
X58233621Y-92616533D01*
X58209431Y-92664008D01*
X58136448Y-92888625D01*
X58099500Y-93121910D01*
X58099500Y-93358089D01*
X58136448Y-93591374D01*
X58209431Y-93815991D01*
X58233620Y-93863464D01*
X58272196Y-93982188D01*
X58272197Y-94107023D01*
X58233621Y-94225748D01*
X58160246Y-94326742D01*
X58059252Y-94400118D01*
X57940528Y-94438694D01*
X57815693Y-94438695D01*
X57696970Y-94400120D01*
X57675992Y-94389431D01*
X57451374Y-94316448D01*
X57451368Y-94316447D01*
X57218092Y-94279500D01*
X56381908Y-94279500D01*
X56192930Y-94309431D01*
X56148625Y-94316448D01*
X55924008Y-94389431D01*
X55713566Y-94496657D01*
X55713565Y-94496658D01*
X55704431Y-94503295D01*
X55593203Y-94559970D01*
X55469906Y-94579500D01*
X55200230Y-94579500D01*
X55076932Y-94559972D01*
X54965704Y-94503298D01*
X54838846Y-94411130D01*
X54614379Y-94296759D01*
X54374790Y-94218911D01*
X54374786Y-94218910D01*
X54374785Y-94218910D01*
X54125962Y-94179500D01*
X53874038Y-94179500D01*
X53625215Y-94218910D01*
X53625209Y-94218911D01*
X53385620Y-94296759D01*
X53161154Y-94411130D01*
X52957346Y-94559205D01*
X52779205Y-94737346D01*
X52631130Y-94941154D01*
X52516759Y-95165620D01*
X52438911Y-95405209D01*
X52438910Y-95405214D01*
X52438910Y-95405215D01*
X52399500Y-95654038D01*
X52399500Y-95905962D01*
X52422610Y-96051869D01*
X52438911Y-96154790D01*
X52486256Y-96300500D01*
X52516759Y-96394379D01*
X52631130Y-96618845D01*
X52779207Y-96822656D01*
X52957344Y-97000793D01*
X53161155Y-97148870D01*
X53385621Y-97263241D01*
X53625215Y-97341090D01*
X53874038Y-97380500D01*
X53874041Y-97380500D01*
X54125959Y-97380500D01*
X54125962Y-97380500D01*
X54374785Y-97341090D01*
X54614379Y-97263241D01*
X54838845Y-97148870D01*
X54956563Y-97063343D01*
X54965704Y-97056702D01*
X55076933Y-97000028D01*
X55200230Y-96980500D01*
X55469901Y-96980500D01*
X55593199Y-97000028D01*
X55704425Y-97056701D01*
X55713567Y-97063343D01*
X55915475Y-97166220D01*
X55924008Y-97170568D01*
X56148625Y-97243551D01*
X56148626Y-97243551D01*
X56148632Y-97243553D01*
X56381908Y-97280500D01*
X56381911Y-97280500D01*
X57218089Y-97280500D01*
X57218092Y-97280500D01*
X57451368Y-97243553D01*
X57675992Y-97170568D01*
X57696963Y-97159882D01*
X57815686Y-97121305D01*
X57940521Y-97121303D01*
X58059246Y-97159878D01*
X58160240Y-97233252D01*
X58233618Y-97334245D01*
X58272196Y-97452969D01*
X58272198Y-97577804D01*
X58233623Y-97696529D01*
X58233621Y-97696533D01*
X58209431Y-97744008D01*
X58136448Y-97968625D01*
X58136447Y-97968632D01*
X58099803Y-98200000D01*
X58099500Y-98201910D01*
X58099500Y-98438089D01*
X58136448Y-98671374D01*
X58209431Y-98895991D01*
X58209432Y-98895992D01*
X58316657Y-99106433D01*
X58442603Y-99279782D01*
X58499275Y-99391009D01*
X58518804Y-99514307D01*
X58499276Y-99637604D01*
X58442602Y-99748833D01*
X58354331Y-99837105D01*
X58243102Y-99893778D01*
X58119804Y-99913307D01*
X58052010Y-99907505D01*
X57948864Y-99889721D01*
X57923531Y-99884503D01*
X57916249Y-99882755D01*
X57916243Y-99882754D01*
X57823062Y-99867995D01*
X57817758Y-99867118D01*
X57724710Y-99851075D01*
X57717223Y-99850383D01*
X57716465Y-99850288D01*
X57714560Y-99850125D01*
X57713769Y-99850089D01*
X57706290Y-99849500D01*
X57706287Y-99849500D01*
X57706283Y-99849500D01*
X57611949Y-99849500D01*
X57606502Y-99849463D01*
X57512159Y-99848174D01*
X57504695Y-99848660D01*
X57478822Y-99849500D01*
X56050422Y-99849500D01*
X55927124Y-99829972D01*
X55890706Y-99814887D01*
X55890481Y-99815433D01*
X55875992Y-99809431D01*
X55651374Y-99736448D01*
X55636082Y-99734026D01*
X55418092Y-99699500D01*
X54581908Y-99699500D01*
X54392052Y-99729569D01*
X54348625Y-99736448D01*
X54124007Y-99809431D01*
X54109519Y-99815433D01*
X54108594Y-99813201D01*
X54011990Y-99844588D01*
X53949578Y-99849500D01*
X49858021Y-99849500D01*
X49734723Y-99829972D01*
X49623495Y-99773298D01*
X49535223Y-99685026D01*
X49478549Y-99573798D01*
X49459021Y-99450500D01*
X49478549Y-99327202D01*
X49478550Y-99327202D01*
X49560601Y-99074674D01*
X49600000Y-98825920D01*
X49600000Y-98574079D01*
X49560602Y-98325329D01*
X49482779Y-98085814D01*
X49482774Y-98085802D01*
X49428270Y-97978835D01*
X48635689Y-98771417D01*
X48534695Y-98844793D01*
X48473513Y-98864671D01*
X48500000Y-98765826D01*
X48500000Y-98634174D01*
X48465925Y-98507007D01*
X48400099Y-98392993D01*
X48307007Y-98299901D01*
X48192993Y-98234075D01*
X48065826Y-98200000D01*
X47934174Y-98200000D01*
X47807007Y-98234075D01*
X47692993Y-98299901D01*
X47599901Y-98392993D01*
X47534075Y-98507007D01*
X47500000Y-98634174D01*
X47500000Y-98765826D01*
X47526486Y-98864671D01*
X47465306Y-98844793D01*
X47364312Y-98771418D01*
X47364312Y-98771417D01*
X46571729Y-97978835D01*
X46571728Y-97978835D01*
X46517223Y-98085808D01*
X46439397Y-98325329D01*
X46400000Y-98574079D01*
X46400000Y-98825920D01*
X46439398Y-99074674D01*
X46521450Y-99327202D01*
X46540979Y-99450500D01*
X46521451Y-99573798D01*
X46464777Y-99685026D01*
X46376506Y-99773298D01*
X46265277Y-99829971D01*
X46141979Y-99849500D01*
X37849500Y-99849500D01*
X37726202Y-99829972D01*
X37614974Y-99773298D01*
X37526702Y-99685026D01*
X37470028Y-99573798D01*
X37450500Y-99450500D01*
X37450500Y-95581908D01*
X39399500Y-95581908D01*
X39399500Y-96418092D01*
X39430591Y-96614392D01*
X39436448Y-96651374D01*
X39509431Y-96875991D01*
X39616657Y-97086433D01*
X39616660Y-97086437D01*
X39750608Y-97270801D01*
X39755483Y-97277510D01*
X39922490Y-97444517D01*
X40113567Y-97583343D01*
X40324008Y-97690568D01*
X40548625Y-97763551D01*
X40548626Y-97763551D01*
X40548632Y-97763553D01*
X40781908Y-97800500D01*
X40781911Y-97800500D01*
X41018089Y-97800500D01*
X41018092Y-97800500D01*
X41251368Y-97763553D01*
X41475992Y-97690568D01*
X41686433Y-97583343D01*
X41877510Y-97444517D01*
X42004664Y-97317362D01*
X42105655Y-97243989D01*
X42224379Y-97205413D01*
X42286798Y-97200500D01*
X43006693Y-97200500D01*
X43129991Y-97220028D01*
X43187834Y-97243987D01*
X43225621Y-97263241D01*
X43225623Y-97263241D01*
X43225624Y-97263242D01*
X43465207Y-97341088D01*
X43465210Y-97341088D01*
X43465215Y-97341090D01*
X43714038Y-97380500D01*
X43714041Y-97380500D01*
X43965959Y-97380500D01*
X43965962Y-97380500D01*
X44214785Y-97341090D01*
X44428259Y-97271728D01*
X47278835Y-97271728D01*
X47993718Y-97986611D01*
X48003743Y-97989148D01*
X48721163Y-97271728D01*
X48614191Y-97217223D01*
X48614186Y-97217221D01*
X48374670Y-97139397D01*
X48125920Y-97100000D01*
X47874080Y-97100000D01*
X47625329Y-97139397D01*
X47385808Y-97217223D01*
X47278835Y-97271728D01*
X44428259Y-97271728D01*
X44454379Y-97263241D01*
X44678845Y-97148870D01*
X44882656Y-97000793D01*
X45060793Y-96822656D01*
X45208870Y-96618845D01*
X45323241Y-96394379D01*
X45401090Y-96154785D01*
X45440500Y-95905962D01*
X45440500Y-95654038D01*
X45401090Y-95405215D01*
X45323241Y-95165621D01*
X45208870Y-94941155D01*
X45060793Y-94737344D01*
X44882656Y-94559207D01*
X44678845Y-94411130D01*
X44454379Y-94296759D01*
X44416382Y-94284413D01*
X44214790Y-94218911D01*
X44214786Y-94218910D01*
X44214785Y-94218910D01*
X43965962Y-94179500D01*
X43714038Y-94179500D01*
X43465215Y-94218910D01*
X43465209Y-94218911D01*
X43225620Y-94296759D01*
X43001154Y-94411130D01*
X42797346Y-94559205D01*
X42797344Y-94559206D01*
X42797344Y-94559207D01*
X42673912Y-94682638D01*
X42572922Y-94756012D01*
X42454197Y-94794588D01*
X42391780Y-94799500D01*
X42286798Y-94799500D01*
X42163500Y-94779972D01*
X42052272Y-94723298D01*
X42004667Y-94682640D01*
X41877510Y-94555483D01*
X41833270Y-94523341D01*
X41686437Y-94416660D01*
X41686433Y-94416657D01*
X41475991Y-94309431D01*
X41251374Y-94236448D01*
X41251368Y-94236447D01*
X41018092Y-94199500D01*
X40781908Y-94199500D01*
X40592052Y-94229569D01*
X40548625Y-94236448D01*
X40324008Y-94309431D01*
X40113566Y-94416657D01*
X40113562Y-94416660D01*
X39922490Y-94555482D01*
X39755482Y-94722490D01*
X39616660Y-94913562D01*
X39616657Y-94913566D01*
X39509431Y-95124008D01*
X39436448Y-95348625D01*
X39436447Y-95348632D01*
X39399500Y-95581908D01*
X37450500Y-95581908D01*
X37450500Y-88581908D01*
X39399500Y-88581908D01*
X39399500Y-89418092D01*
X39436447Y-89651368D01*
X39436448Y-89651374D01*
X39509431Y-89875991D01*
X39528577Y-89913567D01*
X39616657Y-90086433D01*
X39755483Y-90277510D01*
X39922490Y-90444517D01*
X40113567Y-90583343D01*
X40164878Y-90609487D01*
X40324008Y-90690568D01*
X40548625Y-90763551D01*
X40548626Y-90763551D01*
X40548632Y-90763553D01*
X40781908Y-90800500D01*
X40781911Y-90800500D01*
X41018089Y-90800500D01*
X41018092Y-90800500D01*
X41251368Y-90763553D01*
X41475992Y-90690568D01*
X41673327Y-90590020D01*
X41792045Y-90551447D01*
X41916879Y-90551446D01*
X42035604Y-90590022D01*
X42136598Y-90663397D01*
X42209975Y-90764390D01*
X42248551Y-90883114D01*
X42278910Y-91074786D01*
X42320455Y-91202648D01*
X42356759Y-91314379D01*
X42471130Y-91538845D01*
X42619207Y-91742656D01*
X42797344Y-91920793D01*
X43001155Y-92068870D01*
X43225621Y-92183241D01*
X43465215Y-92261090D01*
X43714038Y-92300500D01*
X43714041Y-92300500D01*
X43965959Y-92300500D01*
X43965962Y-92300500D01*
X44214785Y-92261090D01*
X44454379Y-92183241D01*
X44678845Y-92068870D01*
X44882656Y-91920793D01*
X45060793Y-91742656D01*
X45208870Y-91538845D01*
X45323241Y-91314379D01*
X45401090Y-91074785D01*
X45440500Y-90825962D01*
X45440500Y-90574038D01*
X45401090Y-90325215D01*
X45323241Y-90085621D01*
X45208870Y-89861155D01*
X45208869Y-89861153D01*
X45116702Y-89734296D01*
X45060028Y-89623067D01*
X45040500Y-89499770D01*
X45040500Y-88905521D01*
X45039972Y-88902188D01*
X45010940Y-88718882D01*
X44952547Y-88539168D01*
X44866760Y-88370801D01*
X44799403Y-88278092D01*
X44755691Y-88217928D01*
X44622071Y-88084308D01*
X44469198Y-87973239D01*
X44300830Y-87887452D01*
X44121123Y-87829061D01*
X44121119Y-87829060D01*
X44121118Y-87829060D01*
X43934481Y-87799500D01*
X43934478Y-87799500D01*
X42286798Y-87799500D01*
X42163500Y-87779972D01*
X42052272Y-87723298D01*
X42004667Y-87682640D01*
X41877510Y-87555483D01*
X41872823Y-87552078D01*
X41686437Y-87416660D01*
X41686433Y-87416657D01*
X41475991Y-87309431D01*
X41251374Y-87236448D01*
X41251368Y-87236447D01*
X41018092Y-87199500D01*
X40781908Y-87199500D01*
X40592052Y-87229569D01*
X40548625Y-87236448D01*
X40324008Y-87309431D01*
X40113566Y-87416657D01*
X40113562Y-87416660D01*
X39922490Y-87555482D01*
X39755482Y-87722490D01*
X39616660Y-87913562D01*
X39616657Y-87913566D01*
X39509431Y-88124008D01*
X39436448Y-88348625D01*
X39429190Y-88394451D01*
X39399500Y-88581908D01*
X37450500Y-88581908D01*
X37450500Y-79749500D01*
X37470028Y-79626202D01*
X37526702Y-79514974D01*
X37614974Y-79426702D01*
X37726202Y-79370028D01*
X37849500Y-79350500D01*
X58165230Y-79350500D01*
X58288528Y-79370028D01*
G37*
G04 #@! TD.AperFunction*
G04 #@! TA.AperFunction,NonConductor*
G36*
X78306670Y-71823014D02*
G01*
X78306671Y-71823014D01*
X78385621Y-71863241D01*
X78625215Y-71941090D01*
X78874038Y-71980500D01*
X78966527Y-71980500D01*
X79089825Y-72000028D01*
X79201053Y-72056702D01*
X79211321Y-72064418D01*
X79912818Y-72609427D01*
X79998203Y-72700494D01*
X80047495Y-72801209D01*
X80116759Y-73014380D01*
X80207767Y-73192993D01*
X80231130Y-73238845D01*
X80379207Y-73442656D01*
X80454918Y-73518367D01*
X80528292Y-73619358D01*
X80566868Y-73738083D01*
X80566868Y-73862917D01*
X80528292Y-73981642D01*
X80454916Y-74082636D01*
X80353922Y-74156012D01*
X80235197Y-74194588D01*
X80172780Y-74199500D01*
X78136216Y-74199500D01*
X78012918Y-74179972D01*
X77901690Y-74123298D01*
X77813418Y-74035026D01*
X77756744Y-73923798D01*
X77737216Y-73800500D01*
X77756744Y-73677202D01*
X77780705Y-73619357D01*
X77783240Y-73614381D01*
X77783302Y-73614191D01*
X77861090Y-73374785D01*
X77900500Y-73125962D01*
X77900500Y-72874038D01*
X77861090Y-72625215D01*
X77783241Y-72385621D01*
X77770017Y-72359668D01*
X77731442Y-72240945D01*
X77731441Y-72116110D01*
X77770017Y-71997385D01*
X77843392Y-71896392D01*
X77944385Y-71823015D01*
X78063110Y-71784439D01*
X78187945Y-71784438D01*
X78306670Y-71823014D01*
G37*
G04 #@! TD.AperFunction*
G04 #@! TA.AperFunction,NonConductor*
G36*
X35822798Y-72663424D02*
G01*
X35934025Y-72720097D01*
X36001155Y-72768870D01*
X36001158Y-72768871D01*
X36004822Y-72771117D01*
X36008097Y-72773914D01*
X36013839Y-72778086D01*
X36013510Y-72778537D01*
X36099748Y-72852190D01*
X36164975Y-72958628D01*
X36167432Y-72964700D01*
X36930862Y-74896838D01*
X36958009Y-75018685D01*
X36949091Y-75121277D01*
X36950131Y-75121442D01*
X36947794Y-75136192D01*
X36947761Y-75136580D01*
X36947679Y-75136919D01*
X36909500Y-75377968D01*
X36909500Y-75622033D01*
X36947678Y-75863075D01*
X37023095Y-76095182D01*
X37024186Y-76097816D01*
X37024850Y-76100586D01*
X37027940Y-76110093D01*
X37027191Y-76110336D01*
X37053326Y-76219202D01*
X37043529Y-76343652D01*
X36995755Y-76458983D01*
X36914679Y-76553907D01*
X36808239Y-76619131D01*
X36686853Y-76648271D01*
X36655555Y-76649500D01*
X36206287Y-76649500D01*
X35993713Y-76649500D01*
X35783757Y-76682754D01*
X35783753Y-76682755D01*
X35768273Y-76685207D01*
X35767856Y-76682574D01*
X35668153Y-76690411D01*
X35546771Y-76661256D01*
X35440339Y-76596019D01*
X35359275Y-76501085D01*
X35311515Y-76385748D01*
X35300500Y-76292644D01*
X35300500Y-73042896D01*
X35320028Y-72919598D01*
X35376702Y-72808370D01*
X35464974Y-72720098D01*
X35576202Y-72663424D01*
X35699500Y-72643896D01*
X35822798Y-72663424D01*
G37*
G04 #@! TD.AperFunction*
G04 #@! TA.AperFunction,NonConductor*
G36*
X89623798Y-76620028D02*
G01*
X89735026Y-76676702D01*
X89823298Y-76764974D01*
X89879972Y-76876202D01*
X89899500Y-76999500D01*
X89899500Y-78968155D01*
X89879972Y-79091453D01*
X89823298Y-79202681D01*
X89735026Y-79290953D01*
X89623798Y-79347627D01*
X89500500Y-79367155D01*
X89438084Y-79362243D01*
X89345800Y-79347627D01*
X89294481Y-79339499D01*
X89294480Y-79339499D01*
X85159500Y-79339499D01*
X85036202Y-79319971D01*
X84924974Y-79263297D01*
X84836702Y-79175025D01*
X84780028Y-79063797D01*
X84760500Y-78940499D01*
X84760499Y-77060640D01*
X84759306Y-77051579D01*
X84762575Y-76926787D01*
X84804246Y-76809113D01*
X84880240Y-76710075D01*
X84983120Y-76639368D01*
X85102814Y-76603913D01*
X85154893Y-76600500D01*
X89500500Y-76600500D01*
X89623798Y-76620028D01*
G37*
G04 #@! TD.AperFunction*
G04 #@! TA.AperFunction,NonConductor*
G36*
X80967257Y-81083314D02*
G01*
X81068251Y-81156689D01*
X81141625Y-81257680D01*
X81168631Y-81310682D01*
X81176660Y-81326438D01*
X81315482Y-81517509D01*
X81325837Y-81527864D01*
X81399213Y-81628858D01*
X81437789Y-81747583D01*
X81437789Y-81872417D01*
X81399213Y-81991142D01*
X81325837Y-82092136D01*
X81315482Y-82102490D01*
X81176660Y-82293562D01*
X81176657Y-82293566D01*
X81069431Y-82504008D01*
X80996448Y-82728625D01*
X80996447Y-82728632D01*
X80959500Y-82961908D01*
X80959500Y-83198092D01*
X80996068Y-83428976D01*
X80996448Y-83431374D01*
X81069431Y-83655991D01*
X81176657Y-83866433D01*
X81176660Y-83866437D01*
X81315482Y-84057509D01*
X81325837Y-84067864D01*
X81399213Y-84168858D01*
X81437789Y-84287583D01*
X81437789Y-84412417D01*
X81399213Y-84531142D01*
X81325837Y-84632136D01*
X81315482Y-84642490D01*
X81176660Y-84833562D01*
X81176657Y-84833566D01*
X81069431Y-85044008D01*
X80996448Y-85268625D01*
X80996447Y-85268632D01*
X80959500Y-85501908D01*
X80959500Y-85738092D01*
X80961058Y-85747928D01*
X80996448Y-85971374D01*
X81069431Y-86195991D01*
X81162861Y-86379357D01*
X81201438Y-86498082D01*
X81201438Y-86622917D01*
X81162862Y-86741642D01*
X81089486Y-86842635D01*
X80988493Y-86916011D01*
X80869768Y-86954588D01*
X80807350Y-86959500D01*
X80711464Y-86959500D01*
X80588166Y-86939972D01*
X80476938Y-86883298D01*
X80394917Y-86803397D01*
X80378285Y-86781722D01*
X80378282Y-86781718D01*
X80378277Y-86781714D01*
X80378275Y-86781712D01*
X80252843Y-86685465D01*
X80252841Y-86685464D01*
X80179801Y-86655210D01*
X80106763Y-86624956D01*
X80089990Y-86622748D01*
X79989361Y-86609500D01*
X79989355Y-86609500D01*
X78010637Y-86609500D01*
X77893240Y-86624955D01*
X77747158Y-86685464D01*
X77747156Y-86685465D01*
X77621724Y-86781712D01*
X77621709Y-86781727D01*
X77617323Y-86787444D01*
X77526770Y-86873374D01*
X77414095Y-86927115D01*
X77290328Y-86943407D01*
X77167585Y-86920656D01*
X77057879Y-86861088D01*
X76971949Y-86770535D01*
X76918208Y-86657860D01*
X76901916Y-86534093D01*
X76924667Y-86411350D01*
X76945260Y-86363417D01*
X77030568Y-86195992D01*
X77103553Y-85971368D01*
X77140500Y-85738092D01*
X77140500Y-85501908D01*
X77103553Y-85268632D01*
X77030568Y-85044008D01*
X76923343Y-84833567D01*
X76784517Y-84642490D01*
X76774163Y-84632136D01*
X76700787Y-84531142D01*
X76662211Y-84412417D01*
X76662211Y-84287583D01*
X76700787Y-84168858D01*
X76774163Y-84067864D01*
X76784517Y-84057510D01*
X76923343Y-83866433D01*
X77030568Y-83655992D01*
X77103553Y-83431368D01*
X77140500Y-83198092D01*
X77140500Y-82961908D01*
X77103553Y-82728632D01*
X77095944Y-82705215D01*
X77030568Y-82504008D01*
X77003458Y-82450801D01*
X76937137Y-82320639D01*
X76898562Y-82201918D01*
X76898561Y-82077083D01*
X76937137Y-81958358D01*
X77010512Y-81857364D01*
X77111506Y-81783988D01*
X77230230Y-81745412D01*
X77292649Y-81740499D01*
X77799769Y-81740499D01*
X77923067Y-81760027D01*
X78034294Y-81816700D01*
X78161155Y-81908870D01*
X78385621Y-82023241D01*
X78625215Y-82101090D01*
X78874038Y-82140500D01*
X78874041Y-82140500D01*
X79125959Y-82140500D01*
X79125962Y-82140500D01*
X79374785Y-82101090D01*
X79614379Y-82023241D01*
X79838845Y-81908870D01*
X80042656Y-81760793D01*
X80220793Y-81582656D01*
X80368870Y-81378845D01*
X80430606Y-81257682D01*
X80503979Y-81156691D01*
X80604972Y-81083315D01*
X80723697Y-81044739D01*
X80848532Y-81044738D01*
X80967257Y-81083314D01*
G37*
G04 #@! TD.AperFunction*
G04 #@! TA.AperFunction,NonConductor*
G36*
X71361763Y-76620028D02*
G01*
X71472991Y-76676702D01*
X71561263Y-76764974D01*
X71617937Y-76876202D01*
X71637465Y-76999500D01*
X71617937Y-77122798D01*
X71561263Y-77234026D01*
X71520600Y-77281636D01*
X70499806Y-78302428D01*
X70398813Y-78375804D01*
X70280090Y-78414379D01*
X70125214Y-78438909D01*
X69885620Y-78516759D01*
X69661154Y-78631130D01*
X69457346Y-78779205D01*
X69279205Y-78957346D01*
X69131130Y-79161154D01*
X69016759Y-79385620D01*
X68938911Y-79625209D01*
X68938910Y-79625214D01*
X68938910Y-79625215D01*
X68899500Y-79874038D01*
X68899500Y-80125962D01*
X68928559Y-80309431D01*
X68938911Y-80374790D01*
X68963180Y-80449480D01*
X69016759Y-80614379D01*
X69131130Y-80838845D01*
X69279207Y-81042656D01*
X69457344Y-81220793D01*
X69661155Y-81368870D01*
X69885621Y-81483241D01*
X70125215Y-81561090D01*
X70374038Y-81600500D01*
X70374041Y-81600500D01*
X70625959Y-81600500D01*
X70625962Y-81600500D01*
X70874785Y-81561090D01*
X71114379Y-81483241D01*
X71338845Y-81368870D01*
X71542656Y-81220793D01*
X71720793Y-81042656D01*
X71868870Y-80838845D01*
X71983241Y-80614379D01*
X72061090Y-80374785D01*
X72085620Y-80219906D01*
X72124195Y-80101186D01*
X72197571Y-80000193D01*
X72197572Y-80000192D01*
X72880401Y-79317364D01*
X72981394Y-79243988D01*
X73100119Y-79205412D01*
X73162536Y-79200500D01*
X73187350Y-79200500D01*
X73310648Y-79220028D01*
X73421876Y-79276702D01*
X73510148Y-79364974D01*
X73566822Y-79476202D01*
X73586350Y-79599500D01*
X73566822Y-79722798D01*
X73542861Y-79780643D01*
X73449431Y-79964008D01*
X73376448Y-80188625D01*
X73376447Y-80188632D01*
X73339500Y-80421908D01*
X73339500Y-80658092D01*
X73341058Y-80667928D01*
X73376448Y-80891374D01*
X73449431Y-81115991D01*
X73521628Y-81257685D01*
X73556657Y-81326433D01*
X73572786Y-81348632D01*
X73695482Y-81517509D01*
X73705837Y-81527864D01*
X73779213Y-81628858D01*
X73817789Y-81747583D01*
X73817789Y-81872417D01*
X73779213Y-81991142D01*
X73705837Y-82092136D01*
X73695482Y-82102490D01*
X73556660Y-82293562D01*
X73556657Y-82293566D01*
X73449431Y-82504008D01*
X73376448Y-82728625D01*
X73376447Y-82728632D01*
X73339500Y-82961908D01*
X73339500Y-83198092D01*
X73376068Y-83428976D01*
X73376448Y-83431374D01*
X73449431Y-83655991D01*
X73556657Y-83866433D01*
X73556660Y-83866437D01*
X73695482Y-84057509D01*
X73705837Y-84067864D01*
X73779213Y-84168858D01*
X73817789Y-84287583D01*
X73817789Y-84412417D01*
X73779213Y-84531142D01*
X73705837Y-84632136D01*
X73695482Y-84642490D01*
X73556660Y-84833562D01*
X73556657Y-84833566D01*
X73449431Y-85044008D01*
X73376448Y-85268625D01*
X73376447Y-85268632D01*
X73339500Y-85501908D01*
X73339500Y-85738092D01*
X73341058Y-85747928D01*
X73376448Y-85971374D01*
X73449431Y-86195991D01*
X73518797Y-86332128D01*
X73556657Y-86406433D01*
X73569827Y-86424560D01*
X73695482Y-86597509D01*
X73705837Y-86607864D01*
X73779213Y-86708858D01*
X73817789Y-86827583D01*
X73817789Y-86952417D01*
X73779213Y-87071142D01*
X73705837Y-87172136D01*
X73695482Y-87182490D01*
X73556660Y-87373562D01*
X73556657Y-87373566D01*
X73449431Y-87584008D01*
X73376448Y-87808625D01*
X73373211Y-87829061D01*
X73339500Y-88041908D01*
X73339500Y-88278092D01*
X73357930Y-88394453D01*
X73376448Y-88511374D01*
X73449431Y-88735991D01*
X73556657Y-88946433D01*
X73556660Y-88946437D01*
X73695482Y-89137509D01*
X73705837Y-89147864D01*
X73779213Y-89248858D01*
X73817789Y-89367583D01*
X73817789Y-89492417D01*
X73779213Y-89611142D01*
X73705837Y-89712136D01*
X73695482Y-89722490D01*
X73556660Y-89913562D01*
X73556657Y-89913566D01*
X73449431Y-90124008D01*
X73376448Y-90348625D01*
X73376447Y-90348632D01*
X73339500Y-90581908D01*
X73339500Y-90818092D01*
X73368128Y-90998845D01*
X73376448Y-91051374D01*
X73449431Y-91275991D01*
X73542861Y-91459357D01*
X73581438Y-91578082D01*
X73581438Y-91702917D01*
X73542862Y-91821642D01*
X73469486Y-91922635D01*
X73368493Y-91996011D01*
X73249768Y-92034588D01*
X73187350Y-92039500D01*
X71847220Y-92039500D01*
X71723922Y-92019972D01*
X71612694Y-91963298D01*
X71524422Y-91875026D01*
X71467748Y-91763798D01*
X71448220Y-91640500D01*
X71467748Y-91517202D01*
X71524422Y-91405974D01*
X71565078Y-91358370D01*
X71720793Y-91202656D01*
X71868870Y-90998845D01*
X71983241Y-90774379D01*
X72061090Y-90534785D01*
X72100500Y-90285962D01*
X72100500Y-90034038D01*
X72061090Y-89785215D01*
X71983241Y-89545621D01*
X71868870Y-89321155D01*
X71720793Y-89117344D01*
X71542656Y-88939207D01*
X71338845Y-88791130D01*
X71114379Y-88676759D01*
X70874790Y-88598911D01*
X70874786Y-88598910D01*
X70874785Y-88598910D01*
X70625962Y-88559500D01*
X70374038Y-88559500D01*
X70125215Y-88598910D01*
X70125209Y-88598911D01*
X69885614Y-88676761D01*
X69877232Y-88680233D01*
X69755846Y-88709372D01*
X69631396Y-88699574D01*
X69625970Y-88698231D01*
X68160918Y-88324675D01*
X68046268Y-88275288D01*
X67952490Y-88192890D01*
X67888765Y-88085546D01*
X67861330Y-87963763D01*
X67860500Y-87938045D01*
X67860500Y-82985521D01*
X67858372Y-82972084D01*
X67830940Y-82798882D01*
X67772547Y-82619168D01*
X67686760Y-82450801D01*
X67662993Y-82418089D01*
X67575691Y-82297928D01*
X67442071Y-82164308D01*
X67289198Y-82053239D01*
X67120830Y-81967452D01*
X66941123Y-81909061D01*
X66941119Y-81909060D01*
X66941118Y-81909060D01*
X66754481Y-81879500D01*
X66754478Y-81879500D01*
X64799500Y-81879500D01*
X64676202Y-81859972D01*
X64564974Y-81803298D01*
X64476702Y-81715026D01*
X64420028Y-81603798D01*
X64400500Y-81480500D01*
X64400500Y-76999500D01*
X64420028Y-76876202D01*
X64476702Y-76764974D01*
X64564974Y-76676702D01*
X64676202Y-76620028D01*
X64799500Y-76600500D01*
X71238465Y-76600500D01*
X71361763Y-76620028D01*
G37*
G04 #@! TD.AperFunction*
G04 #@! TA.AperFunction,NonConductor*
G36*
X65183798Y-84300028D02*
G01*
X65295026Y-84356702D01*
X65383298Y-84444974D01*
X65439972Y-84556202D01*
X65459500Y-84679500D01*
X65459500Y-88150786D01*
X65439972Y-88274084D01*
X65383298Y-88385312D01*
X65376657Y-88394451D01*
X65269430Y-88604897D01*
X65196448Y-88829511D01*
X65196447Y-88829518D01*
X65159500Y-89062794D01*
X65159500Y-89298978D01*
X65191259Y-89499500D01*
X65196448Y-89532260D01*
X65269431Y-89756877D01*
X65376657Y-89967319D01*
X65376660Y-89967323D01*
X65490498Y-90124008D01*
X65515483Y-90158396D01*
X65682490Y-90325403D01*
X65873567Y-90464229D01*
X66012041Y-90534785D01*
X66084008Y-90571454D01*
X66308625Y-90644437D01*
X66308626Y-90644437D01*
X66308632Y-90644439D01*
X66541908Y-90681386D01*
X66541911Y-90681386D01*
X66778089Y-90681386D01*
X66778092Y-90681386D01*
X67011368Y-90644439D01*
X67134357Y-90604477D01*
X67257650Y-90584949D01*
X67356229Y-90597318D01*
X69037079Y-91025897D01*
X69151728Y-91075284D01*
X69245506Y-91157682D01*
X69261292Y-91177999D01*
X69279201Y-91202648D01*
X69279207Y-91202656D01*
X69434918Y-91358367D01*
X69508292Y-91459358D01*
X69546868Y-91578083D01*
X69546868Y-91702917D01*
X69508292Y-91821642D01*
X69434916Y-91922636D01*
X69333922Y-91996012D01*
X69215197Y-92034588D01*
X69152780Y-92039500D01*
X65094481Y-92039500D01*
X64905519Y-92039500D01*
X64718882Y-92069060D01*
X64718880Y-92069060D01*
X64718877Y-92069061D01*
X64566182Y-92118675D01*
X64442885Y-92138203D01*
X64319587Y-92118674D01*
X64208358Y-92062001D01*
X64120087Y-91973729D01*
X64063413Y-91862500D01*
X64043885Y-91739203D01*
X64063414Y-91615905D01*
X64120083Y-91504683D01*
X64133343Y-91486433D01*
X64240568Y-91275992D01*
X64313553Y-91051368D01*
X64350500Y-90818092D01*
X64350500Y-90581908D01*
X64313553Y-90348632D01*
X64306023Y-90325458D01*
X64240568Y-90124008D01*
X64133342Y-89913566D01*
X64133339Y-89913562D01*
X64095262Y-89861154D01*
X63994517Y-89722490D01*
X63827510Y-89555483D01*
X63813936Y-89545621D01*
X63654798Y-89430000D01*
X63636433Y-89416657D01*
X63526219Y-89360500D01*
X63425991Y-89309431D01*
X63201374Y-89236448D01*
X63201368Y-89236447D01*
X62968092Y-89199500D01*
X62731908Y-89199500D01*
X62556951Y-89227210D01*
X62498631Y-89236447D01*
X62435050Y-89257106D01*
X62274008Y-89309432D01*
X62274006Y-89309432D01*
X62260627Y-89313780D01*
X62137329Y-89333308D01*
X62014031Y-89313780D01*
X61902803Y-89257106D01*
X61814531Y-89168834D01*
X61757857Y-89057606D01*
X61738329Y-88934308D01*
X61757857Y-88811010D01*
X61781819Y-88753163D01*
X61790569Y-88735990D01*
X61863551Y-88511374D01*
X61863550Y-88511374D01*
X61863553Y-88511368D01*
X61900500Y-88278092D01*
X61900500Y-88041908D01*
X61863553Y-87808632D01*
X61824926Y-87689752D01*
X61790568Y-87584008D01*
X61766376Y-87536529D01*
X61683343Y-87373567D01*
X61544517Y-87182490D01*
X61534163Y-87172136D01*
X61460787Y-87071142D01*
X61422211Y-86952417D01*
X61422211Y-86827583D01*
X61460787Y-86708858D01*
X61534163Y-86607864D01*
X61544517Y-86597510D01*
X61683343Y-86406433D01*
X61790568Y-86195992D01*
X61863553Y-85971368D01*
X61900500Y-85738092D01*
X61900500Y-85501908D01*
X61863553Y-85268632D01*
X61790568Y-85044008D01*
X61786809Y-85036631D01*
X61781817Y-85026832D01*
X61743241Y-84908107D01*
X61743242Y-84783272D01*
X61781818Y-84664547D01*
X61855194Y-84563554D01*
X61956188Y-84490179D01*
X62074913Y-84451603D01*
X62199748Y-84451604D01*
X62260628Y-84466220D01*
X62274004Y-84470566D01*
X62274008Y-84470568D01*
X62498632Y-84543553D01*
X62731908Y-84580500D01*
X62731911Y-84580500D01*
X62968089Y-84580500D01*
X62968092Y-84580500D01*
X63201368Y-84543553D01*
X63425992Y-84470568D01*
X63636433Y-84363343D01*
X63645570Y-84356704D01*
X63756797Y-84300030D01*
X63880094Y-84280500D01*
X65060500Y-84280500D01*
X65183798Y-84300028D01*
G37*
G04 #@! TD.AperFunction*
G04 #@! TA.AperFunction,NonConductor*
G36*
X63791279Y-92089033D02*
G01*
X63892274Y-92162407D01*
X63965651Y-92263400D01*
X64004229Y-92382124D01*
X64004231Y-92506959D01*
X63965656Y-92625684D01*
X63965654Y-92625688D01*
X63887453Y-92779166D01*
X63829061Y-92958876D01*
X63829060Y-92958881D01*
X63829060Y-92958882D01*
X63803240Y-93121910D01*
X63799500Y-93145521D01*
X63799500Y-93961615D01*
X63779972Y-94084913D01*
X63723298Y-94196141D01*
X63635026Y-94284413D01*
X63523798Y-94341087D01*
X63400500Y-94360615D01*
X63277204Y-94341087D01*
X63201372Y-94316448D01*
X63201370Y-94316447D01*
X63201368Y-94316447D01*
X62968092Y-94279500D01*
X62731908Y-94279500D01*
X62556951Y-94307210D01*
X62498631Y-94316447D01*
X62466947Y-94326742D01*
X62274008Y-94389432D01*
X62274006Y-94389432D01*
X62260627Y-94393780D01*
X62137329Y-94413308D01*
X62014031Y-94393780D01*
X61902803Y-94337106D01*
X61814531Y-94248834D01*
X61757857Y-94137606D01*
X61738329Y-94014308D01*
X61757857Y-93891010D01*
X61781819Y-93833163D01*
X61790569Y-93815990D01*
X61863551Y-93591374D01*
X61863550Y-93591374D01*
X61863553Y-93591368D01*
X61900500Y-93358092D01*
X61900500Y-93121908D01*
X61863553Y-92888632D01*
X61790568Y-92664008D01*
X61781817Y-92646832D01*
X61743241Y-92528107D01*
X61743242Y-92403272D01*
X61781818Y-92284547D01*
X61855194Y-92183554D01*
X61956188Y-92110179D01*
X62074913Y-92071603D01*
X62199748Y-92071604D01*
X62260628Y-92086220D01*
X62274004Y-92090566D01*
X62274008Y-92090568D01*
X62498632Y-92163553D01*
X62731908Y-92200500D01*
X62731911Y-92200500D01*
X62968089Y-92200500D01*
X62968092Y-92200500D01*
X63201368Y-92163553D01*
X63425992Y-92090568D01*
X63428995Y-92089038D01*
X63432209Y-92087993D01*
X63440477Y-92084569D01*
X63440746Y-92085219D01*
X63547719Y-92050460D01*
X63672554Y-92050458D01*
X63791279Y-92089033D01*
G37*
G04 #@! TD.AperFunction*
M02*
